<svg width="249" height="88" viewBox="0 0 249 88" fill="none" xmlns="http://www.w3.org/2000/svg">
<g clip-path="url(#clip0_234_886)">
<path d="M45.2869 66.6162C39.1233 66.6162 33.3299 64.2145 28.9703 59.8585C24.6106 55.4989 22.2126 49.7055 22.2126 43.5419C22.2126 37.3782 24.6143 31.5849 28.9703 27.2252C33.3299 22.8655 39.1233 20.4675 45.2869 20.4675C51.4506 20.4675 57.2439 22.8692 61.6036 27.2252C65.9633 31.5849 68.3613 37.3782 68.3613 43.5419C68.3613 49.7055 65.9596 55.4989 61.6036 59.8585C57.2439 64.2182 51.4469 66.6162 45.2869 66.6162Z" fill="#FDBE67"/>
<path d="M45.1695 65.7287C32.9558 65.7287 23.0155 55.792 23.0155 43.5747C23.0155 31.3573 32.9522 21.4207 45.1695 21.4207C57.3868 21.4207 67.3235 31.3573 67.3235 43.5747C67.3235 55.792 57.3868 65.7287 45.1695 65.7287ZM46.4895 52.3857C46.4052 52.3857 46.3282 52.4187 46.2658 52.4773C46.2035 52.536 46.1668 52.6203 46.1668 52.7083V63.2537C46.1668 63.3527 46.2108 63.4443 46.2878 63.503C46.3465 63.547 46.4162 63.5727 46.4858 63.5727C46.5078 63.5727 46.5335 63.569 46.5555 63.5653C49.9252 62.799 53.0162 59.191 54.8275 53.9183C54.8568 53.834 54.8495 53.7423 54.8055 53.6617C54.7652 53.5847 54.6918 53.526 54.6038 53.504C52.0738 52.855 49.3458 52.4773 46.4968 52.3893C46.4968 52.3857 46.4932 52.3857 46.4895 52.3857ZM43.8385 52.3893C40.9858 52.481 38.2578 52.855 35.7315 53.504C35.6435 53.526 35.5702 53.5847 35.5298 53.6617C35.4858 53.7387 35.4785 53.834 35.5078 53.9183C37.3155 59.191 40.4102 62.799 43.7798 63.5653C43.8018 63.569 43.8275 63.5727 43.8495 63.5727C43.9228 63.5727 43.9925 63.547 44.0475 63.503C44.1245 63.4407 44.1685 63.349 44.1685 63.2537V52.7083C44.1685 52.6203 44.1318 52.5397 44.0695 52.4773C44.0108 52.4187 43.9302 52.3857 43.8458 52.3857C43.8458 52.3857 43.8422 52.3857 43.8385 52.3893ZM33.2382 54.2813C33.2015 54.2813 33.1648 54.2887 33.1282 54.2997C31.8632 54.758 30.7045 55.2897 29.6888 55.8763C29.6082 55.924 29.5495 56.0047 29.5348 56.0963C29.5165 56.188 29.5422 56.2833 29.6008 56.3567C31.5405 58.7143 34.0302 60.632 36.8058 61.9007C36.8498 61.919 36.8938 61.93 36.9378 61.93C37.0332 61.93 37.1285 61.886 37.1908 61.8053C37.2825 61.688 37.2788 61.523 37.1872 61.4093C35.6802 59.5577 34.4518 57.233 33.5388 54.5013C33.5095 54.4207 33.4508 54.351 33.3738 54.3143C33.3335 54.2923 33.2858 54.2813 33.2382 54.2813ZM57.1045 54.2777C57.0568 54.2777 57.0092 54.2887 56.9652 54.3107C56.8882 54.3473 56.8295 54.417 56.8002 54.4977C55.8835 57.233 54.6552 59.5577 53.1518 61.4093C53.0565 61.523 53.0565 61.688 53.1482 61.8053C53.2105 61.886 53.3058 61.93 53.4012 61.93C53.4452 61.93 53.4928 61.919 53.5332 61.9007C56.3088 60.6283 58.7985 58.7107 60.7382 56.3567C60.7968 56.2833 60.8225 56.188 60.8042 56.0963C60.7858 56.0047 60.7308 55.924 60.6502 55.8763C59.6235 55.2823 58.4685 54.7507 57.2145 54.296C57.1778 54.285 57.1412 54.2777 57.1045 54.2777ZM58.7802 44.5757C58.6078 44.5757 58.4648 44.7113 58.4612 44.8837C58.3805 47.344 58.0615 49.7347 57.5188 51.9897C57.4822 52.1473 57.5702 52.3123 57.7242 52.3673C59.2642 52.9137 60.6575 53.5517 61.8712 54.274C61.9225 54.3033 61.9775 54.318 62.0325 54.318C62.1388 54.318 62.2452 54.263 62.3038 54.1677C64.0308 51.3847 65.0575 48.1873 65.2738 44.9167C65.2812 44.8287 65.2482 44.7407 65.1895 44.6783C65.1272 44.6123 65.0428 44.5757 64.9548 44.5757H58.7802ZM25.3878 44.5757C25.2998 44.5757 25.2155 44.6123 25.1532 44.6783C25.0945 44.7443 25.0615 44.8287 25.0688 44.9167C25.2852 48.1873 26.3118 51.3847 28.0388 54.1677C28.0975 54.2667 28.2038 54.318 28.3102 54.318C28.3652 54.318 28.4238 54.3033 28.4715 54.274C29.6815 53.5553 31.0785 52.9137 32.6185 52.3673C32.7725 52.3123 32.8605 52.151 32.8238 51.9897C32.2812 49.7347 31.9622 47.344 31.8815 44.8837C31.8742 44.7113 31.7348 44.5757 31.5625 44.5757H25.3878ZM34.2062 44.5757C34.1182 44.5757 34.0375 44.6123 33.9752 44.6747C33.9165 44.737 33.8835 44.8213 33.8872 44.9093C33.9715 47.135 34.2685 49.3057 34.7672 51.3627C34.7855 51.447 34.8405 51.5167 34.9138 51.5607C34.9652 51.59 35.0202 51.6047 35.0788 51.6047C35.1045 51.6047 35.1338 51.601 35.1595 51.5937C37.8912 50.8823 40.8172 50.4753 43.8605 50.3837C44.0328 50.38 44.1722 50.237 44.1722 50.0647V44.8947C44.1722 44.7187 44.0292 44.5757 43.8532 44.5757H34.2062ZM46.4895 44.5757C46.3135 44.5757 46.1705 44.7187 46.1705 44.8947V50.0647C46.1705 50.237 46.3062 50.38 46.4822 50.3837C49.5255 50.4753 52.4552 50.8823 55.1832 51.5937C55.2088 51.601 55.2382 51.6047 55.2638 51.6047C55.3225 51.6047 55.3775 51.59 55.4288 51.5607C55.5022 51.5167 55.5535 51.4433 55.5755 51.3627C56.0742 49.3057 56.3675 47.135 56.4555 44.9093C56.4592 44.8213 56.4262 44.737 56.3675 44.6747C56.3088 44.6123 56.2245 44.5757 56.1365 44.5757H46.4895ZM62.0325 32.8313C61.9775 32.8313 61.9225 32.846 61.8712 32.8753C60.6612 33.594 59.2642 34.2357 57.7242 34.782C57.5702 34.837 57.4822 34.9983 57.5188 35.1597C58.0615 37.4147 58.3805 39.8053 58.4612 42.2657C58.4685 42.438 58.6078 42.5737 58.7802 42.5737H64.9512C65.0392 42.5737 65.1235 42.537 65.1858 42.471C65.2445 42.405 65.2775 42.3207 65.2702 42.2327C65.0538 38.962 64.0272 35.7647 62.3002 32.9817C62.2415 32.8827 62.1388 32.8313 62.0325 32.8313ZM55.2638 35.5447C55.2382 35.5447 55.2088 35.5483 55.1832 35.5557C52.4552 36.267 49.5255 36.674 46.4822 36.7657C46.3098 36.7693 46.1705 36.9123 46.1705 37.0847V42.2547C46.1705 42.4307 46.3135 42.5737 46.4895 42.5737H56.1328C56.2208 42.5737 56.3015 42.537 56.3638 42.4747C56.4225 42.4123 56.4555 42.328 56.4518 42.24C56.3675 40.0143 56.0705 37.8437 55.5718 35.7867C55.5535 35.7023 55.4985 35.6327 55.4252 35.5887C55.3775 35.5593 55.3225 35.5447 55.2638 35.5447ZM35.0752 35.5447C35.0165 35.5447 34.9615 35.5593 34.9102 35.5887C34.8368 35.6327 34.7818 35.706 34.7635 35.7867C34.2648 37.8437 33.9678 40.018 33.8835 42.24C33.8798 42.328 33.9128 42.4123 33.9715 42.4747C34.0302 42.537 34.1145 42.5737 34.2025 42.5737H43.8458C44.0218 42.5737 44.1648 42.4307 44.1648 42.2547V37.0847C44.1648 36.9123 44.0292 36.7693 43.8532 36.7657C40.8098 36.674 37.8838 36.267 35.1522 35.5557C35.1302 35.5483 35.1045 35.5447 35.0752 35.5447ZM28.3102 32.8313C28.2038 32.8313 28.0975 32.8863 28.0388 32.9817C26.3118 35.7647 25.2852 38.962 25.0688 42.2327C25.0615 42.3207 25.0945 42.4087 25.1532 42.471C25.2155 42.537 25.2998 42.5737 25.3878 42.5737H31.5588C31.7312 42.5737 31.8742 42.438 31.8778 42.2657C31.9585 39.8053 32.2775 37.4147 32.8202 35.1597C32.8568 35.002 32.7688 34.837 32.6148 34.782C31.0712 34.2357 29.6778 33.594 28.4678 32.8753C28.4202 32.846 28.3652 32.8313 28.3102 32.8313ZM46.4895 23.5767C46.4162 23.5767 46.3465 23.6023 46.2915 23.6463C46.2145 23.7087 46.1705 23.8003 46.1705 23.8957V34.441C46.1705 34.529 46.2072 34.6097 46.2695 34.672C46.3282 34.7307 46.4088 34.7637 46.4932 34.7637C46.4968 34.7637 46.5005 34.7637 46.5042 34.7637C49.3568 34.6757 52.0848 34.298 54.6112 33.649C54.6992 33.627 54.7725 33.5683 54.8128 33.4913C54.8568 33.4143 54.8642 33.319 54.8348 33.2347C53.0272 27.962 49.9362 24.354 46.5628 23.5877C46.5372 23.5803 46.5152 23.5767 46.4895 23.5767ZM43.8495 23.5767C43.8275 23.5767 43.8018 23.5803 43.7798 23.584C40.4102 24.3503 37.3192 27.9547 35.5078 33.231C35.4785 33.3153 35.4858 33.407 35.5298 33.4877C35.5738 33.5647 35.6435 33.6233 35.7315 33.6453C38.2615 34.298 40.9895 34.672 43.8385 34.7637C43.8422 34.7637 43.8458 34.7637 43.8495 34.7637C43.9338 34.7637 44.0108 34.7307 44.0732 34.672C44.1355 34.6133 44.1722 34.529 44.1722 34.441V23.8957C44.1722 23.7967 44.1282 23.705 44.0512 23.6463C43.9925 23.6023 43.9228 23.5767 43.8495 23.5767ZM53.3975 25.2157C53.3022 25.2157 53.2068 25.2597 53.1445 25.3403C53.0528 25.4577 53.0565 25.6227 53.1482 25.7363C54.6552 27.588 55.8835 29.9163 56.7965 32.648C56.8222 32.7287 56.8845 32.7983 56.9615 32.835C57.0055 32.857 57.0532 32.868 57.1008 32.868C57.1375 32.868 57.1742 32.8607 57.2108 32.8497C58.4685 32.395 59.6235 31.8633 60.6465 31.2693C60.7272 31.2217 60.7822 31.141 60.8005 31.0493C60.8188 30.9577 60.7932 30.8623 60.7345 30.789C58.7948 28.4313 56.3052 26.5173 53.5295 25.245C53.4892 25.2267 53.4452 25.2157 53.3975 25.2157ZM36.9415 25.2157C36.8975 25.2157 36.8498 25.2267 36.8095 25.245C34.0338 26.5173 31.5442 28.435 29.6045 30.789C29.5458 30.8623 29.5202 30.9577 29.5385 31.0493C29.5568 31.141 29.6118 31.2217 29.6925 31.2693C30.7082 31.856 31.8632 32.3877 33.1318 32.846C33.1685 32.857 33.2052 32.8643 33.2418 32.8643C33.2895 32.8643 33.3372 32.8533 33.3812 32.8313C33.4582 32.7947 33.5168 32.725 33.5462 32.6443C34.4628 29.9127 35.6912 27.588 37.1945 25.7363C37.2898 25.6227 37.2898 25.4577 37.1982 25.3403C37.1322 25.2597 37.0368 25.2157 36.9415 25.2157Z" fill="white"/>
<path d="M100.692 51.7082H94.3568V22.7373H102.407L112.63 44.7924L122.807 22.7373H130.857V51.7082H124.522V33.1262L115.794 51.7082H109.42L100.692 33.041L100.692 51.7082Z" fill="black"/>
<path d="M161.428 51.7082V32.3841L141.799 51.7082H136.687V22.7373H143.022V41.9397L162.698 22.7373H167.763V51.7082H161.428Z" fill="black"/>
<path d="M198.194 51.7082V32.3841L178.565 51.7082H173.453V22.7373H179.788V41.9397L199.464 22.7373H204.529V51.7082H198.194Z" fill="black"/>
<path d="M216.554 51.7082H210.219V22.7373H216.554V34.5738H220.17L232.514 22.7373H241.109L226.093 37.2197L242.286 51.7021H233.465L220.031 39.8656H216.548V51.7081L216.554 51.7082Z" fill="black"/>
<path d="M93.4063 64.1222H91.8243V56.8779H93.4063V64.1222Z" fill="black"/>
<path d="M96.4243 64.1222H94.8422V56.8779H96.1119L101.031 61.677V56.8779H102.613V64.1222H101.337L96.4309 59.2866V64.1222H96.4243Z" fill="black"/>
<path d="M106.342 58.2163H103.537V56.8843H110.709V58.2163H107.924V64.1224H106.342V58.2163Z" fill="black"/>
<path d="M111.667 56.8779H118.201V58.21H113.249V59.8218H118.021V61.1539H113.249V62.7658H118.201V64.11H111.667V56.8779Z" fill="black"/>
<path d="M123.446 62.9302C124.655 62.9302 125.593 62.2915 125.912 61.2818H123.366V60.0714H127.74V64.1162H126.317L126.191 63.143C125.446 63.8669 124.436 64.2683 123.253 64.2683C120.886 64.2683 119.125 62.6564 119.125 60.5033C119.125 58.3196 120.9 56.7139 123.352 56.7139C125.373 56.7139 126.962 57.7722 127.467 59.4327H125.885C125.453 58.5751 124.529 58.0459 123.339 58.0459C121.804 58.0459 120.707 59.0617 120.707 60.4972C120.713 61.9387 121.85 62.9302 123.446 62.9302Z" fill="black"/>
<path d="M132.732 62.0115H130.585V64.1222H129.003V56.8779H133.071C134.766 56.8779 136.168 57.8998 136.168 59.4447C136.168 60.4605 135.444 61.306 134.46 61.7317L136.448 64.1222H134.48L132.732 62.0115ZM133.071 58.2161H130.585V60.6612H133.071C133.942 60.6612 134.586 60.1321 134.586 59.4508C134.586 58.7331 133.948 58.2161 133.071 58.2161Z" fill="black"/>
<path d="M140.217 56.8779H141.978L145.973 64.1222H144.212L143.274 62.413H138.94L138.003 64.1222H136.248L140.217 56.8779ZM142.53 61.0931L141.094 58.4837L139.658 61.0931H142.53Z" fill="black"/>
<path d="M148.08 58.2163H145.275V56.8843H152.448V58.2163H149.662V64.1224H148.08V58.2163Z" fill="black"/>
<path d="M154.98 64.1222H153.398V56.8779H154.98V64.1222Z" fill="black"/>
<path d="M160.404 56.7263C162.877 56.7263 164.738 58.2469 164.738 60.5157C164.738 62.748 162.884 64.2808 160.404 64.2808C157.925 64.2808 156.064 62.6689 156.064 60.5157C156.064 58.326 157.918 56.7263 160.404 56.7263ZM160.404 62.894C162.046 62.894 163.15 61.9086 163.15 60.5157C163.15 59.0863 162.04 58.1131 160.404 58.1131C158.789 58.1131 157.646 59.0863 157.646 60.5157C157.646 61.9086 158.796 62.894 160.404 62.894Z" fill="black"/>
<path d="M167.411 64.1222H165.829V56.8779H167.092L172.011 61.677V56.8779H173.593V64.1222H172.316L167.411 59.2866V64.1222Z" fill="black"/>
<path d="M180.991 64.2808C179.137 64.2808 177.721 63.3988 177.588 62.0546H178.525C178.705 62.973 179.668 63.5569 180.958 63.5569C182.201 63.5569 183.105 62.9974 183.105 62.2431C183.105 59.9075 177.721 61.7444 177.721 58.6727C177.721 57.5049 179.03 56.7263 180.772 56.7263C182.48 56.7263 183.756 57.5657 183.929 58.7883H182.999C182.819 58.0036 181.902 57.4441 180.772 57.4441C179.542 57.4441 178.625 57.9611 178.625 58.7092C178.625 60.8016 184.009 59.0072 184.009 62.2796C184.009 63.3988 182.799 64.2808 180.991 64.2808Z" fill="black"/>
<path d="M188.848 56.7263C191.108 56.7263 192.737 58.2773 192.737 60.5157C192.737 62.7297 191.108 64.2808 188.848 64.2808C186.641 64.2808 184.98 62.6689 184.98 60.5157C184.98 58.326 186.635 56.7263 188.848 56.7263ZM188.848 63.49C190.61 63.49 191.833 62.2614 191.833 60.4975C191.833 58.7275 190.623 57.5049 188.848 57.5049C187.127 57.5049 185.884 58.77 185.884 60.4975C185.884 62.2188 187.14 63.49 188.848 63.49Z" fill="black"/>
<path d="M194.047 56.8779H194.951V63.3375H199.351V64.1222H194.047V56.8779Z" fill="black"/>
<path d="M206.703 60.9532V56.8779H207.607V60.9532C207.607 62.857 206.264 64.2438 204.303 64.2438C202.402 64.2438 200.986 62.8266 200.986 60.9532V56.8779H201.89V60.9532C201.89 62.3826 202.934 63.4592 204.297 63.4592C205.726 63.4592 206.703 62.413 206.703 60.9532Z" fill="black"/>
<path d="M211.496 57.6565H208.75V56.8779H215.138V57.6565H212.4V64.1222H211.496V57.6565Z" fill="black"/>
<path d="M217.192 64.1222H216.288V56.8779H217.192V64.1222Z" fill="black"/>
<path d="M222.424 56.7263C224.684 56.7263 226.313 58.2773 226.313 60.5157C226.313 62.7297 224.684 64.2808 222.424 64.2808C220.217 64.2808 218.555 62.6689 218.555 60.5157C218.562 58.326 220.21 56.7263 222.424 56.7263ZM222.424 63.49C224.185 63.49 225.408 62.2614 225.408 60.4975C225.408 58.7275 224.199 57.5049 222.424 57.5049C220.702 57.5049 219.459 58.77 219.459 60.4975C219.466 62.2188 220.722 63.49 222.424 63.49Z" fill="black"/>
<path d="M228.533 64.1222H227.629V56.8779H228.34L233.511 62.5894V56.8779H234.415V64.1222H233.704L228.533 58.3681V64.1222Z" fill="black"/>
<path d="M239.135 64.2808C237.281 64.2808 235.865 63.3988 235.732 62.0546H236.669C236.848 62.973 237.812 63.5569 239.102 63.5569C240.345 63.5569 241.249 62.9974 241.249 62.2431C241.249 59.9075 235.865 61.7444 235.865 58.6727C235.865 57.5049 237.174 56.7263 238.916 56.7263C240.624 56.7263 241.9 57.5657 242.073 58.7883H241.149C240.97 58.0036 240.052 57.4441 238.922 57.4441C237.686 57.4441 236.775 57.9611 236.775 58.7092C236.775 60.8016 242.16 59.0072 242.16 62.2796C242.153 63.3988 240.943 64.2808 239.135 64.2808Z" fill="black"/>
<path d="M53.295 78.2758C53.2913 78.2758 53.2876 78.2758 53.284 78.2758L33.1466 77.2712C33.1026 77.2675 33.0623 77.2528 33.0256 77.2308L17.0243 66.0732C16.984 66.0475 16.9546 66.0071 16.94 65.9632L10.3986 48.4915C10.3876 48.4622 10.384 48.4292 10.384 48.3998L11.2603 29.3405C11.264 29.2892 11.2823 29.2415 11.3153 29.2012L25.652 12.0888C25.6776 12.0595 25.7106 12.0338 25.7473 12.0192L37.312 7.65216C37.334 7.64482 37.3523 7.64116 37.3743 7.63749L47.9453 6.81982C47.9856 6.81982 48.0186 6.82349 48.0516 6.83816L69.4613 15.8325C69.509 15.8508 69.5456 15.8875 69.5713 15.9315L79.816 33.5388C79.8343 33.5718 79.8453 33.6122 79.849 33.6525L80.201 50.9188C80.201 50.9592 80.1936 50.9958 80.1753 51.0325L70.5723 69.2962C70.5503 69.3365 70.5173 69.3731 70.4733 69.3951L53.394 78.2575C53.372 78.2685 53.3316 78.2758 53.295 78.2758ZM33.2383 76.8092L53.2473 77.8102L70.2056 69.0102L79.7463 50.8638L79.3943 33.7185L69.2156 16.2322L47.927 7.28916L37.444 8.10316L25.9673 12.4372L11.7223 29.4432L10.8496 48.3778L17.347 65.7395L33.2383 76.8092Z" fill="black"/>
<path d="M37.8802 18.9785C37.8436 18.9785 37.8032 18.9712 37.7702 18.9492L25.7216 12.4372C25.6372 12.3932 25.5896 12.2979 25.6006 12.2025C25.6152 12.1072 25.6849 12.0302 25.7766 12.0082L47.9159 6.82353C48.0149 6.80153 48.1139 6.84187 48.1689 6.92987C48.2202 7.0142 48.2129 7.1242 48.1469 7.2012L38.0599 18.8979C38.0122 18.9529 37.9462 18.9785 37.8802 18.9785ZM26.4806 12.3235L37.8289 18.4542L47.3292 7.43953L26.4806 12.3235Z" fill="black"/>
<path d="M25.8317 12.4706C25.7327 12.4706 25.641 12.4046 25.608 12.3056C25.5713 12.1883 25.6337 12.0636 25.7473 12.0196L37.312 7.6526C37.334 7.64527 37.3523 7.6416 37.3743 7.63793L47.9453 6.82027C48.081 6.81293 48.1726 6.89727 48.191 7.0146C48.2093 7.1356 48.1323 7.24927 48.015 7.27493L25.8757 12.4596C25.8647 12.4669 25.85 12.4706 25.8317 12.4706ZM37.4476 8.09993L29.2233 11.2056L44.9643 7.51693L37.4476 8.09993Z" fill="black"/>
<path d="M37.8803 18.9785C37.7923 18.9785 37.708 18.9272 37.6713 18.8465C37.631 18.7622 37.6457 18.6632 37.7043 18.5935L47.7913 6.89683C47.8316 6.84916 47.8903 6.81983 47.9527 6.81616C48.015 6.81616 48.0737 6.8345 48.1213 6.87483L60.5587 17.8602C60.6283 17.9225 60.654 18.0215 60.6247 18.1132C60.5917 18.2012 60.5073 18.2635 60.412 18.2672L37.8877 18.9785C37.8877 18.9785 37.884 18.9785 37.8803 18.9785ZM47.9893 7.38083L38.401 18.4982L59.8106 17.8235L47.9893 7.38083Z" fill="black"/>
<path d="M60.4047 18.2673C60.3497 18.2673 60.2947 18.2453 60.2507 18.2087L47.8134 7.22334C47.7291 7.14634 47.7107 7.02167 47.7694 6.92634C47.8317 6.83101 47.9527 6.79067 48.0554 6.83467L69.4651 15.829C69.5567 15.8693 69.6154 15.9647 69.6081 16.0637C69.6007 16.1627 69.5274 16.247 69.4284 16.269L60.4524 18.26C60.4377 18.2673 60.4231 18.2673 60.4047 18.2673ZM49.1811 7.81L60.4707 17.7833L68.6181 15.9757L49.1811 7.81Z" fill="black"/>
<path d="M75.3867 33.7373C75.3243 33.7373 75.2657 33.7116 75.2217 33.6676L60.2397 18.1979C60.181 18.1393 60.159 18.0513 60.1847 17.9706C60.2103 17.8899 60.2727 17.8276 60.357 17.8093L69.333 15.8183C69.4503 15.7926 69.564 15.8586 69.6043 15.9686L75.6103 33.4293C75.647 33.5319 75.6067 33.6456 75.5113 33.7043C75.471 33.7263 75.427 33.7373 75.3867 33.7373ZM60.8593 18.1723L74.8257 32.5933L69.2267 16.3133L60.8593 18.1723Z" fill="black"/>
<path d="M79.6253 33.8836C79.6217 33.8836 79.6217 33.8836 79.618 33.8836L75.3793 33.7369C75.284 33.7332 75.1997 33.6709 75.1667 33.5792L69.1606 16.1186C69.1203 16.0049 69.1753 15.8802 69.2816 15.8326C69.3916 15.7849 69.52 15.8216 69.5786 15.9279L79.8233 33.5352C79.8636 33.6086 79.8636 33.7002 79.8233 33.7699C79.783 33.8396 79.7097 33.8836 79.6253 33.8836ZM75.5553 33.2786L79.2146 33.4032L70.367 18.2012L75.5553 33.2786Z" fill="black"/>
<path d="M69.19 57.8855C69.1423 57.8855 69.0946 57.8708 69.0543 57.8415C68.9773 57.7865 68.9443 57.6875 68.9663 57.5958L75.163 33.4471C75.1886 33.3445 75.295 33.2675 75.3866 33.2711C75.493 33.2711 75.5846 33.3408 75.6103 33.4435L80.2046 50.8565C80.2303 50.9555 80.19 51.0581 80.102 51.1131L69.311 57.8488C69.2743 57.8745 69.234 57.8855 69.19 57.8855ZM75.3903 34.4261L69.5603 57.1485L79.7133 50.8088L75.3903 34.4261Z" fill="black"/>
<path d="M79.981 51.1465C79.8783 51.1465 79.783 51.0769 79.7573 50.9742L75.163 33.5612C75.1446 33.4915 75.1593 33.4145 75.207 33.3559C75.251 33.2972 75.317 33.2642 75.3976 33.2679L79.6363 33.4145C79.7573 33.4182 79.8563 33.5172 79.86 33.6419L80.212 50.8422C80.2193 50.8642 80.223 50.8862 80.223 50.9119C80.223 51.0402 80.0983 51.1502 79.9883 51.1429C79.981 51.1465 79.981 51.1465 79.981 51.1465ZM75.691 33.7482L79.7096 48.9759L79.4016 33.8765L75.691 33.7482Z" fill="black"/>
<path d="M70.3744 69.4134C70.3598 69.4134 70.3451 69.4134 70.3304 69.4097C70.2314 69.3914 70.1544 69.3071 70.1434 69.2044L68.9591 57.6764C68.9518 57.5884 68.9921 57.504 69.0654 57.4564L79.8564 50.7207C79.9444 50.6657 80.0618 50.6767 80.1388 50.7464C80.2158 50.816 80.2341 50.9297 80.1864 51.0251L70.5834 69.2887C70.5394 69.3657 70.4624 69.4134 70.3744 69.4134ZM69.4358 57.7717L70.5284 68.3904L79.3761 51.5641L69.4358 57.7717Z" fill="black"/>
<path d="M51.997 75.361C51.9163 75.361 51.843 75.3206 51.799 75.251C51.744 75.1593 51.755 75.042 51.832 74.965L69.025 57.4896C69.0873 57.4273 69.1826 57.4016 69.267 57.4346C69.3513 57.464 69.4136 57.541 69.421 57.629L70.6053 69.157C70.6163 69.267 70.5503 69.366 70.4476 69.4026L52.0703 75.35C52.0446 75.3573 52.0226 75.361 51.997 75.361ZM69.0103 58.168L52.8293 74.6166L70.1286 69.0176L69.0103 58.168Z" fill="black"/>
<path d="M53.295 78.276C53.2693 78.276 53.2437 78.2724 53.218 78.2614C53.1593 78.2394 53.108 78.1954 53.0823 78.1367L51.7843 75.2217C51.7587 75.163 51.7587 75.0934 51.7843 75.031C51.81 74.9724 51.8613 74.9247 51.9237 74.9064L70.301 68.959C70.4183 68.9224 70.5393 68.9774 70.587 69.091C70.6347 69.201 70.587 69.3294 70.4807 69.388L53.4013 78.2504C53.3683 78.2687 53.3317 78.276 53.295 78.276ZM52.316 75.2694L53.4087 77.7224L67.7893 70.2607L52.316 75.2694Z" fill="black"/>
<path d="M53.295 78.2764C53.2913 78.2764 53.2876 78.2764 53.284 78.2764L33.1466 77.2717C33.0256 77.2644 32.9303 77.169 32.9266 77.0444C32.923 76.9234 33.0146 76.8207 33.1356 76.806L51.975 74.8957C52.0813 74.8884 52.1693 74.9397 52.2096 75.0314L53.5076 77.9464C53.5406 78.0197 53.5333 78.104 53.4856 78.1737C53.4453 78.2397 53.372 78.2764 53.295 78.2764ZM36.2376 76.96L52.932 77.7924L51.854 75.376L36.2376 76.96Z" fill="black"/>
<path d="M33.1576 77.2717C33.0733 77.2717 32.9926 77.224 32.9523 77.147L27.786 67.181C27.742 67.0966 27.753 66.994 27.8153 66.9243C27.8776 66.851 27.9766 66.8253 28.0646 66.8546L52.0666 74.9103C52.1693 74.947 52.2353 75.046 52.2243 75.156C52.2133 75.266 52.1253 75.3503 52.019 75.3613L33.1796 77.2717C33.176 77.2717 33.165 77.2717 33.1576 77.2717ZM28.4643 67.478L33.2933 76.795L50.9043 75.0093L28.4643 67.478Z" fill="black"/>
<path d="M33.1577 77.2711C33.11 77.2711 33.066 77.2564 33.0257 77.2307L17.0243 66.0731C16.9363 66.0107 16.9033 65.9007 16.94 65.8017C16.9767 65.7027 17.072 65.6404 17.182 65.6514L28.017 66.8431C28.094 66.8504 28.1637 66.8981 28.1967 66.9677L33.3667 76.9301C33.4143 77.0254 33.3923 77.1391 33.3153 77.2124C33.2677 77.2491 33.2127 77.2711 33.1577 77.2711ZM18.0363 66.2124L32.5197 76.3104L27.8447 67.2904L18.0363 66.2124Z" fill="black"/>
<path d="M27.9951 67.3051C27.9877 67.3051 27.9767 67.3051 27.9694 67.3051L17.1344 66.1134C17.0427 66.1024 16.9621 66.0364 16.9364 65.9484L11.7701 48.0808C11.7407 47.9744 11.7884 47.8644 11.8837 47.8131C11.9791 47.7618 12.1001 47.7838 12.1697 47.8681L28.1747 66.9274C28.2371 67.0008 28.2481 67.1034 28.2004 67.1878C28.1601 67.2574 28.0794 67.3051 27.9951 67.3051ZM17.3361 65.6661L27.4414 66.7771L12.5144 49.0011L17.3361 65.6661Z" fill="black"/>
<path d="M17.1563 66.1133C17.0609 66.1133 16.9729 66.0546 16.9399 65.963L10.3986 48.4913C10.3766 48.429 10.3803 48.363 10.4096 48.3043C10.4389 48.2456 10.4903 48.2016 10.5526 48.187L11.9239 47.791C12.0449 47.7543 12.1733 47.8276 12.2099 47.9486L17.3616 65.7576C17.3836 65.7943 17.3983 65.8346 17.3983 65.8823C17.3983 66.0106 17.2956 66.1133 17.1673 66.1133C17.1636 66.1133 17.1599 66.1133 17.1563 66.1133ZM10.9229 48.561L15.2533 60.1293L11.8323 48.3006L10.9229 48.561Z" fill="black"/>
<path d="M27.995 67.3055C27.929 67.3055 27.863 67.2761 27.819 67.2211L11.814 48.1618C11.7626 48.0995 11.748 48.0188 11.77 47.9418C11.7956 47.8648 11.8543 47.8061 11.9313 47.7878L29.6963 43.0945C29.7696 43.0761 29.8466 43.0945 29.9053 43.1385C29.964 43.1861 29.9933 43.2595 29.9896 43.3328L28.2296 67.0855C28.2223 67.1808 28.16 67.2615 28.0683 67.2871C28.0426 67.3018 28.017 67.3055 27.995 67.3055ZM12.4043 48.1471L27.8043 66.4878L29.4983 43.6298L12.4043 48.1471Z" fill="black"/>
<path d="M11.99 48.246C11.979 48.246 11.968 48.246 11.957 48.2423C11.847 48.2277 11.7627 48.1323 11.759 48.0187L11.264 29.3517C11.2603 29.2453 11.3337 29.1463 11.4363 29.1207L18.6487 27.2653C18.733 27.2433 18.8173 27.269 18.876 27.3313C18.9347 27.3937 18.953 27.4817 18.9273 27.5623L12.21 48.0847C12.1807 48.1837 12.089 48.246 11.99 48.246ZM11.7333 29.5277L12.188 46.6693L18.359 27.8227L11.7333 29.5277Z" fill="black"/>
<path d="M10.6187 48.642C10.5673 48.642 10.516 48.6237 10.4757 48.5907C10.417 48.543 10.384 48.4734 10.3877 48.3964L11.264 29.337C11.2677 29.2124 11.3813 29.1134 11.4987 29.117C11.6233 29.117 11.726 29.2197 11.7297 29.3444L12.2247 48.0114C12.2283 48.1177 12.1587 48.213 12.056 48.2387L10.6847 48.6347C10.6627 48.6384 10.6407 48.642 10.6187 48.642ZM11.4327 35.75L10.8643 48.0957L11.7553 47.839L11.4327 35.75Z" fill="black"/>
<path d="M18.7074 27.7235C18.6451 27.7235 18.5864 27.7015 18.5424 27.6538C18.4727 27.5841 18.4544 27.4815 18.4984 27.3935L25.6227 12.1365C25.6484 12.0778 25.6997 12.0338 25.7584 12.0155C25.8207 11.9935 25.8867 12.0008 25.9417 12.0301L37.9904 18.5421C38.0674 18.5825 38.1151 18.6668 38.1114 18.7548C38.1077 18.8428 38.0564 18.9198 37.9757 18.9565L18.8027 27.7015C18.7734 27.7198 18.7404 27.7235 18.7074 27.7235ZM25.9381 12.5581L19.1841 27.0195L37.3597 18.7291L25.9381 12.5581Z" fill="black"/>
<path d="M29.755 43.5524C29.678 43.5524 29.6084 43.5157 29.5644 43.4534L18.5204 27.6244C18.48 27.5694 18.469 27.496 18.4874 27.43C18.5057 27.364 18.5534 27.309 18.6157 27.2797L37.7887 18.5347C37.873 18.498 37.972 18.5127 38.038 18.575C38.1077 18.6374 38.1334 18.7327 38.104 18.8207L29.975 43.3947C29.9457 43.479 29.876 43.5377 29.788 43.5524C29.777 43.5524 29.766 43.5524 29.755 43.5524ZM19.0594 27.5877L29.6817 42.808L37.499 19.1764L19.0594 27.5877Z" fill="black"/>
<path d="M29.755 43.5524C29.689 43.5524 29.6266 43.5267 29.5826 43.4754C29.5276 43.413 29.5093 43.325 29.535 43.248L37.664 18.674C37.6896 18.597 37.752 18.5384 37.8326 18.52C37.9133 18.5017 37.994 18.5274 38.0526 18.5824L56.4446 37.363C56.5033 37.4217 56.5253 37.5097 56.4996 37.5904C56.474 37.671 56.408 37.7334 56.3273 37.7517L29.81 43.5487C29.788 43.5524 29.7696 43.5524 29.755 43.5524ZM37.983 19.18L30.1033 43.0097L55.814 37.3924L37.983 19.18Z" fill="black"/>
<path d="M27.9951 67.305C27.9437 67.305 27.8961 67.2904 27.8557 67.2574C27.7934 67.2097 27.7604 67.1327 27.7641 67.0557L29.5241 43.303C29.5314 43.215 29.5901 43.1344 29.6707 43.105C29.7551 43.072 29.8504 43.0904 29.9164 43.1527L47.4064 59.88C47.4651 59.935 47.4907 60.0157 47.4724 60.0964C47.4577 60.1734 47.3991 60.2394 47.3257 60.265L28.0757 67.2904C28.0464 67.3014 28.0207 67.305 27.9951 67.305ZM29.9494 43.831L28.2517 66.733L46.8124 59.957L29.9494 43.831Z" fill="black"/>
<path d="M51.997 75.3613C51.9713 75.3613 51.9456 75.3577 51.9236 75.3503L27.9216 67.2947C27.83 67.2617 27.764 67.1773 27.764 67.0783C27.764 66.9793 27.8226 66.8913 27.918 66.8583L47.168 59.833C47.2266 59.811 47.2926 59.8147 47.3513 59.844C47.41 59.8733 47.4503 59.921 47.4686 59.9833L52.206 75.0057C52.2316 75.0423 52.2426 75.0863 52.2426 75.134C52.2426 75.2623 52.14 75.365 52.0116 75.365C52.0043 75.3613 52.0006 75.3613 51.997 75.3613ZM28.6953 67.0637L51.6376 74.7637L47.0946 60.35L28.6953 67.0637Z" fill="black"/>
<path d="M51.997 75.3612C51.9786 75.3612 51.9603 75.3575 51.942 75.3538C51.8613 75.3355 51.799 75.2768 51.777 75.1962L47.0213 60.1152C46.9993 60.0492 47.0103 59.9758 47.047 59.9172C47.0836 59.8585 47.146 59.8218 47.2156 59.8145L69.1606 57.4202C69.2633 57.4128 69.3513 57.4605 69.3953 57.5485C69.4393 57.6365 69.421 57.7428 69.3513 57.8125L52.1583 75.2878C52.118 75.3355 52.0593 75.3612 51.997 75.3612ZM47.5493 60.2472L52.1033 74.6902L68.5666 57.9555L47.5493 60.2472Z" fill="black"/>
<path d="M47.2414 60.2803C47.1827 60.2803 47.1241 60.2583 47.08 60.2143L29.5901 43.4869C29.5277 43.4283 29.5057 43.3403 29.5277 43.2559C29.5497 43.1753 29.6194 43.1093 29.7001 43.0909L56.2174 37.2939C56.3017 37.2756 56.3897 37.3049 56.4447 37.3709C56.4997 37.4369 56.5144 37.5286 56.4814 37.6056L47.4577 60.1336C47.4284 60.2069 47.3661 60.2583 47.2927 60.2729C47.2744 60.2766 47.2597 60.2803 47.2414 60.2803ZM30.2281 43.4576L47.1534 59.6459L55.891 37.8513L30.2281 43.4576Z" fill="black"/>
<path d="M47.2413 60.2798C47.168 60.2798 47.102 60.2468 47.058 60.1881C47.0103 60.1221 46.9957 60.0378 47.0287 59.9608L56.0597 37.4401C56.0927 37.3594 56.166 37.3044 56.254 37.2971C56.3347 37.2861 56.4227 37.3301 56.4703 37.4034L69.388 57.5298C69.432 57.5958 69.4357 57.6838 69.4027 57.7534C69.3697 57.8268 69.3 57.8744 69.2193 57.8854L47.2743 60.2798C47.2597 60.2798 47.2523 60.2798 47.2413 60.2798ZM56.32 38.0304L47.6007 59.7738L68.7903 57.4601L56.32 38.0304Z" fill="black"/>
<path d="M69.1899 57.8855C69.1129 57.8855 69.0359 57.8452 68.9956 57.7792L56.0779 37.6529C56.0376 37.5905 56.0303 37.5099 56.0596 37.4365C56.0889 37.3669 56.1513 37.3155 56.2246 37.2972L75.3389 33.2749C75.4159 33.2565 75.5003 33.2822 75.5553 33.3409C75.6103 33.3995 75.6323 33.4802 75.6139 33.5609L69.4173 57.7095C69.3953 57.7975 69.3219 57.8672 69.2303 57.8819C69.2156 57.8855 69.2009 57.8855 69.1899 57.8855ZM56.6499 37.6859L69.0983 57.0825L75.0713 33.8102L56.6499 37.6859Z" fill="black"/>
<path d="M56.2724 37.759C56.2101 37.759 56.1514 37.7334 56.1074 37.6894C56.0524 37.6344 56.0267 37.5537 56.0451 37.4767L60.1774 17.9884C60.1957 17.904 60.2581 17.838 60.3387 17.8124C60.4231 17.7867 60.5111 17.8124 60.5697 17.8747L75.5517 33.3444C75.6104 33.4067 75.6324 33.491 75.6067 33.5754C75.581 33.656 75.5151 33.7184 75.4307 33.733L56.3164 37.7554C56.3054 37.7554 56.2871 37.759 56.2724 37.759ZM60.5404 18.5127L56.573 37.2274L74.9284 33.3664L60.5404 18.5127Z" fill="black"/>
<path d="M56.2723 37.7593C56.21 37.7593 56.1513 37.7336 56.1073 37.6896L37.7153 18.909C37.6493 18.843 37.631 18.744 37.6677 18.6596C37.7007 18.5753 37.785 18.5166 37.8767 18.513L60.401 17.8016C60.4707 17.7906 60.5403 17.831 60.588 17.886C60.632 17.941 60.6503 18.0143 60.6357 18.084L56.5033 37.5723C56.485 37.6566 56.4227 37.7226 56.342 37.7483C56.3163 37.7556 56.2943 37.7593 56.2723 37.7593ZM38.4157 18.964L56.133 37.0553L60.115 18.2783L38.4157 18.964Z" fill="black"/>
<path d="M56.2723 41.4553C58.4412 41.4553 60.1993 39.6971 60.1993 37.5283C60.1993 35.3595 58.4412 33.6013 56.2723 33.6013C54.1035 33.6013 52.3453 35.3595 52.3453 37.5283C52.3453 39.6971 54.1035 41.4553 56.2723 41.4553Z" fill="#0F2C34"/>
<path d="M47.2451 64.1445C49.5071 64.1445 51.3407 62.3108 51.3407 60.0488C51.3407 57.7868 49.5071 55.9531 47.2451 55.9531C44.9831 55.9531 43.1494 57.7868 43.1494 60.0488C43.1494 62.3108 44.9831 64.1445 47.2451 64.1445Z" fill="#0F2C34"/>
<path d="M37.8804 22.2492C39.8143 22.2492 41.3821 20.6814 41.3821 18.7475C41.3821 16.8136 39.8143 15.2458 37.8804 15.2458C35.9465 15.2458 34.3787 16.8136 34.3787 18.7475C34.3787 20.6814 35.9465 22.2492 37.8804 22.2492Z" fill="#0F2C34"/>
<path d="M60.4047 21.12C62.1077 21.12 63.4883 19.7394 63.4883 18.0363C63.4883 16.3332 62.1077 14.9526 60.4047 14.9526C58.7016 14.9526 57.321 16.3332 57.321 18.0363C57.321 19.7394 58.7016 21.12 60.4047 21.12Z" fill="#0F2C34"/>
<path d="M47.9673 10.0796C49.64 10.0796 50.996 8.72357 50.996 7.05088C50.996 5.3782 49.64 4.02222 47.9673 4.02222C46.2946 4.02222 44.9387 5.3782 44.9387 7.05088C44.9387 8.72357 46.2946 10.0796 47.9673 10.0796Z" fill="#0F2C34"/>
<path d="M25.8317 14.2305C26.9333 14.2305 27.8264 13.3375 27.8264 12.2359C27.8264 11.1343 26.9333 10.2412 25.8317 10.2412C24.7301 10.2412 23.837 11.1343 23.837 12.2359C23.837 13.3375 24.7301 14.2305 25.8317 14.2305Z" fill="#0F2C34"/>
<path d="M69.3806 19.1106C71.0736 19.1106 72.446 17.7382 72.446 16.0453C72.446 14.3524 71.0736 12.98 69.3806 12.98C67.6877 12.98 66.3153 14.3524 66.3153 16.0453C66.3153 17.7382 67.6877 19.1106 69.3806 19.1106Z" fill="#0F2C34"/>
<path d="M79.6253 36.219C81.0448 36.219 82.1956 35.0683 82.1956 33.6487C82.1956 32.2291 81.0448 31.0784 79.6253 31.0784C78.2057 31.0784 77.0549 32.2291 77.0549 33.6487C77.0549 35.0683 78.2057 36.219 79.6253 36.219Z" fill="#0F2C34"/>
<path d="M53.2949 79.8196C54.2751 79.8196 55.0696 79.0251 55.0696 78.0449C55.0696 77.0648 54.2751 76.2703 53.2949 76.2703C52.3148 76.2703 51.5203 77.0648 51.5203 78.0449C51.5203 79.0251 52.3148 79.8196 53.2949 79.8196Z" fill="#0F2C34"/>
<path d="M70.3744 70.9534C71.3545 70.9534 72.1491 70.1588 72.1491 69.1787C72.1491 68.1986 71.3545 67.4041 70.3744 67.4041C69.3943 67.4041 68.5997 68.1986 68.5997 69.1787C68.5997 70.1588 69.3943 70.9534 70.3744 70.9534Z" fill="#0F2C34"/>
<path d="M80.2193 52.7227C81.1994 52.7227 81.994 51.9281 81.994 50.948C81.994 49.9679 81.1994 49.1733 80.2193 49.1733C79.2392 49.1733 78.4446 49.9679 78.4446 50.948C78.4446 51.9281 79.2392 52.7227 80.2193 52.7227Z" fill="#0F2C34"/>
<path d="M38.1151 9.33864C39.0952 9.33864 39.8897 8.54409 39.8897 7.56397C39.8897 6.58385 39.0952 5.78931 38.1151 5.78931C37.1349 5.78931 36.3404 6.58385 36.3404 7.56397C36.3404 8.54409 37.1349 9.33864 38.1151 9.33864Z" fill="#0F2C34"/>
<path d="M17.1564 68.8489C18.7947 68.8489 20.1227 67.5209 20.1227 65.8826C20.1227 64.2443 18.7947 62.9163 17.1564 62.9163C15.5181 62.9163 14.1901 64.2443 14.1901 65.8826C14.1901 67.5209 15.5181 68.8489 17.1564 68.8489Z" fill="#0F2C34"/>
<path d="M33.1577 78.8111C34.1378 78.8111 34.9323 78.0165 34.9323 77.0364C34.9323 76.0563 34.1378 75.2617 33.1577 75.2617C32.1775 75.2617 31.383 76.0563 31.383 77.0364C31.383 78.0165 32.1775 78.8111 33.1577 78.8111Z" fill="#0F2C34"/>
<path d="M10.8973 49.7053C11.8775 49.7053 12.672 48.9108 12.672 47.9307C12.672 46.9506 11.8775 46.156 10.8973 46.156C9.91723 46.156 9.12268 46.9506 9.12268 47.9307C9.12268 48.9108 9.91723 49.7053 10.8973 49.7053Z" fill="#0F2C34"/>
<path d="M75.3867 35.724C76.6118 35.724 77.605 34.7308 77.605 33.5057C77.605 32.2805 76.6118 31.2874 75.3867 31.2874C74.1615 31.2874 73.1683 32.2805 73.1683 33.5057C73.1683 34.7308 74.1615 35.724 75.3867 35.724Z" fill="#0F2C34"/>
<path d="M69.19 61.0169C71.047 61.0169 72.5524 59.5115 72.5524 57.6546C72.5524 55.7976 71.047 54.2922 69.19 54.2922C67.3331 54.2922 65.8277 55.7976 65.8277 57.6546C65.8277 59.5115 67.3331 61.0169 69.19 61.0169Z" fill="#0F2C34"/>
<path d="M51.9971 77.1248C53.0987 77.1248 53.9918 76.2318 53.9918 75.1302C53.9918 74.0285 53.0987 73.1355 51.9971 73.1355C50.8955 73.1355 50.0024 74.0285 50.0024 75.1302C50.0024 76.2318 50.8955 77.1248 51.9971 77.1248Z" fill="#0F2C34"/>
<path d="M18.7073 30.4879C20.3618 30.4879 21.703 29.1467 21.703 27.4923C21.703 25.8378 20.3618 24.4966 18.7073 24.4966C17.0529 24.4966 15.7117 25.8378 15.7117 27.4923C15.7117 29.1467 17.0529 30.4879 18.7073 30.4879Z" fill="#0F2C34"/>
<path d="M11.495 31.3429C12.5966 31.3429 13.4896 30.4498 13.4896 29.3482C13.4896 28.2466 12.5966 27.3535 11.495 27.3535C10.3933 27.3535 9.50031 28.2466 9.50031 29.3482C9.50031 30.4498 10.3933 31.3429 11.495 31.3429Z" fill="#0F2C34"/>
<path d="M27.9949 70.9097C30.1131 70.9097 31.8303 69.1925 31.8303 67.0743C31.8303 64.9561 30.1131 63.239 27.9949 63.239C25.8767 63.239 24.1596 64.9561 24.1596 67.0743C24.1596 69.1925 25.8767 70.9097 27.9949 70.9097Z" fill="#0F2C34"/>
<path d="M11.99 50.0094C13.0916 50.0094 13.9846 49.1163 13.9846 48.0147C13.9846 46.9131 13.0916 46.02 11.99 46.02C10.8883 46.02 9.9953 46.9131 9.9953 48.0147C9.9953 49.1163 10.8883 50.0094 11.99 50.0094Z" fill="#0F2C34"/>
<path d="M29.7551 47.6558C32.1487 47.6558 34.0891 45.7154 34.0891 43.3218C34.0891 40.9282 32.1487 38.9878 29.7551 38.9878C27.3615 38.9878 25.4211 40.9282 25.4211 43.3218C25.4211 45.7154 27.3615 47.6558 29.7551 47.6558Z" fill="#0F2C34"/>
<path d="M54.9963 35.7169C55.3887 35.2659 55.8727 35.0386 56.4447 35.0386C57.0167 35.0386 57.5007 35.2659 57.893 35.7169C58.2853 36.1679 58.4833 36.7729 58.4833 37.5282C58.4833 38.2836 58.2853 38.8886 57.893 39.3396C57.5007 39.7906 57.0167 40.0179 56.4447 40.0179C55.8727 40.0179 55.3887 39.7906 54.9963 39.3396C54.604 38.8886 54.406 38.2836 54.406 37.5282C54.4023 36.7729 54.6003 36.1679 54.9963 35.7169ZM57.3467 36.2119C57.0973 35.8929 56.793 35.7316 56.4447 35.7316C56.0927 35.7316 55.792 35.8929 55.5427 36.2119C55.2933 36.5309 55.165 36.9709 55.165 37.5282C55.165 38.0856 55.2897 38.5256 55.5427 38.8482C55.7957 39.1709 56.0963 39.3286 56.4447 39.3286C56.7967 39.3286 57.0973 39.1672 57.3467 38.8482C57.596 38.5292 57.7243 38.0892 57.7243 37.5282C57.7243 36.9672 57.5997 36.5309 57.3467 36.2119Z" fill="white"/>
<path d="M59.3598 16.6207C59.6458 16.2907 60.0015 16.1257 60.4195 16.1257C60.8375 16.1257 61.1895 16.2907 61.4791 16.6207C61.7651 16.9507 61.9118 17.3907 61.9118 17.9444C61.9118 18.4981 61.7688 18.9381 61.4791 19.2681C61.1931 19.5981 60.8375 19.7631 60.4195 19.7631C60.0015 19.7631 59.6495 19.5981 59.3598 19.2681C59.0701 18.9381 58.9271 18.4981 58.9271 17.9444C58.9271 17.3907 59.0701 16.9507 59.3598 16.6207ZM61.0795 16.9801C60.8961 16.7454 60.6761 16.6281 60.4195 16.6281C60.1628 16.6281 59.9428 16.7454 59.7595 16.9801C59.5761 17.2147 59.4845 17.5337 59.4845 17.9407C59.4845 18.3477 59.5761 18.6704 59.7595 18.9051C59.9428 19.1397 60.1628 19.2571 60.4195 19.2571C60.6761 19.2571 60.8961 19.1397 61.0795 18.9051C61.2628 18.6704 61.3545 18.3514 61.3545 17.9407C61.3545 17.5301 61.2628 17.2147 61.0795 16.9801Z" fill="white"/>
<path d="M45.9104 58.2123C46.3027 57.7613 46.7867 57.5339 47.3587 57.5339C47.9307 57.5339 48.4147 57.7613 48.8071 58.2123C49.1994 58.6633 49.3974 59.2683 49.3974 60.0236C49.3974 60.7789 49.1994 61.3839 48.8071 61.8349C48.4147 62.2859 47.9307 62.5133 47.3587 62.5133C46.7867 62.5133 46.3027 62.2859 45.9104 61.8349C45.5181 61.3839 45.3201 60.7789 45.3201 60.0236C45.3201 59.2683 45.5181 58.6633 45.9104 58.2123ZM48.2607 58.7073C48.0114 58.3883 47.7071 58.2269 47.3587 58.2269C47.0067 58.2269 46.7061 58.3883 46.4567 58.7073C46.2074 59.0263 46.0791 59.4663 46.0791 60.0236C46.0791 60.5809 46.2037 61.0209 46.4567 61.3436C46.7061 61.6626 47.0104 61.8239 47.3587 61.8239C47.7107 61.8239 48.0114 61.6626 48.2607 61.3436C48.5101 61.0246 48.6384 60.5846 48.6384 60.0236C48.6384 59.4626 48.5137 59.0263 48.2607 58.7073Z" fill="white"/>
<path d="M68.0533 56.3166C68.3576 55.9682 68.728 55.7959 69.1643 55.7959C69.6043 55.7959 69.9746 55.9682 70.2753 56.3166C70.5796 56.6649 70.73 57.1269 70.73 57.7062C70.73 58.2856 70.5796 58.7512 70.2753 59.0959C69.971 59.4442 69.6006 59.6166 69.1643 59.6166C68.7243 59.6166 68.354 59.4442 68.0533 59.0959C67.749 58.7476 67.5986 58.2856 67.5986 57.7062C67.5986 57.1269 67.749 56.6649 68.0533 56.3166ZM69.8573 56.6979C69.663 56.4522 69.432 56.3312 69.1643 56.3312C68.893 56.3312 68.662 56.4522 68.4713 56.6979C68.277 56.9436 68.1816 57.2809 68.1816 57.7099C68.1816 58.1389 68.277 58.4762 68.4713 58.7219C68.6656 58.9676 68.8966 59.0922 69.1643 59.0922C69.4356 59.0922 69.6666 58.9676 69.8573 58.7219C70.0516 58.4762 70.147 58.1389 70.147 57.7099C70.147 57.2809 70.0516 56.9436 69.8573 56.6979Z" fill="white"/>
<path d="M17.523 26.0368C17.8274 25.6884 18.1977 25.5161 18.634 25.5161C19.074 25.5161 19.4444 25.6884 19.745 26.0368C20.0494 26.3851 20.1997 26.8471 20.1997 27.4264C20.1997 28.0058 20.0494 28.4714 19.745 28.8161C19.4407 29.1644 19.0704 29.3368 18.634 29.3368C18.194 29.3368 17.8237 29.1644 17.523 28.8161C17.2187 28.4678 17.0684 28.0058 17.0684 27.4264C17.0684 26.8471 17.2187 26.3851 17.523 26.0368ZM19.3307 26.4181C19.1364 26.1724 18.9054 26.0514 18.6377 26.0514C18.3664 26.0514 18.1354 26.1724 17.9447 26.4181C17.7504 26.6638 17.655 27.0011 17.655 27.4301C17.655 27.8591 17.7504 28.1964 17.9447 28.4421C18.139 28.6878 18.37 28.8124 18.6377 28.8124C18.909 28.8124 19.14 28.6878 19.3307 28.4421C19.525 28.1964 19.6204 27.8591 19.6204 27.4301C19.6204 27.0011 19.5214 26.6638 19.3307 26.4181Z" fill="white"/>
<path d="M30.0447 41.1584V46.0021H29.2857V42.3391H28.4204V41.8184C28.7101 41.7854 28.9337 41.7194 29.0841 41.6094C29.2344 41.5031 29.3591 41.3528 29.4581 41.1584H30.0447Z" fill="white"/>
<path d="M38.4744 16.3535V21.1972H37.7154V17.5342H36.85V17.0135C37.1397 16.9805 37.3634 16.9145 37.5137 16.8045C37.664 16.6982 37.7887 16.5478 37.8877 16.3535H38.4744Z" fill="white"/>
<path d="M28.3873 65.1199V68.6765H27.83V65.9852H27.1957V65.6039C27.4083 65.5819 27.5697 65.5305 27.6833 65.4499C27.7933 65.3729 27.885 65.2592 27.9583 65.1199H28.3873Z" fill="white"/>
</g>
<defs>
<clipPath id="clip0_234_886">
<rect width="248.6" height="88" fill="white"/>
</clipPath>
</defs>
</svg>
