<svg width="415" height="760" viewBox="0 0 415 760" fill="none" xmlns="http://www.w3.org/2000/svg">
<path fill-rule="evenodd" clip-rule="evenodd" d="M92.6323 52.1672C87.165 57.4705 79.7091 60.7352 71.4906 60.7352C64.7534 60.7352 58.5286 58.5413 53.4917 54.8289L-4.99771 122.652C0.685852 128.259 4.46625 135.791 5.28693 144.19L165.302 139.137C165.586 132.663 167.861 126.706 171.53 121.863L92.6323 52.1672ZM95.7365 48.6551L154.126 100.237L174.634 118.35C180.203 112.933 187.807 109.597 196.191 109.597C210.152 109.597 221.951 118.849 225.792 131.557L255.757 124.909C255.556 123.486 255.451 122.033 255.451 120.555C255.451 117.168 255.999 113.908 257.011 110.861L98.4955 44.2712C97.6995 45.8142 96.7751 47.2802 95.7365 48.6551ZM258.828 106.534L100.318 39.9428C101.317 36.9326 101.858 33.7133 101.858 30.3676C101.858 13.596 88.2621 0 71.4906 0C54.719 0 41.1229 13.596 41.1229 30.3676V30.3826L-9.54648 34.3018C-10.1687 25.0389 -17.8794 17.7181 -27.3 17.7181C-37.1275 17.7181 -45.0941 25.6847 -45.0941 35.5122C-45.0941 37.0167 -44.9074 38.4777 -44.5558 39.8731L-132.704 73.159C-136.034 66.741 -142.739 62.3562 -150.469 62.3562C-161.514 62.3562 -170.469 71.3105 -170.469 82.3562C-170.469 87.6758 -168.392 92.5104 -165.005 96.0933L-283.235 237.214C-286.386 235.142 -290.158 233.937 -294.211 233.937C-305.256 233.937 -314.211 242.891 -314.211 253.937C-314.211 263.871 -306.967 272.114 -297.472 273.672L-304.336 422.946C-312.172 424.809 -318 431.853 -318 440.258C-318 449.937 -310.273 457.811 -300.651 458.047L-250.016 593.292C-260.161 598.029 -267.19 608.322 -267.19 620.257C-267.19 636.683 -253.874 650 -237.448 650C-228.183 650 -219.908 645.763 -214.453 639.122L-92.8205 723.936C-94.0832 726.379 -94.7963 729.153 -94.7963 732.093C-94.7963 741.921 -86.8296 749.887 -77.0022 749.887C-68.2808 749.887 -61.0249 743.613 -59.5022 735.332L107.164 743.647C107.898 752.8 115.559 760 124.901 760C134.728 760 142.695 752.033 142.695 742.206C142.695 740.086 142.325 738.053 141.645 736.168L281.603 663.544C284.824 668.115 290.142 671.101 296.159 671.101C305.986 671.101 313.953 663.134 313.953 653.307C313.953 647.32 310.996 642.023 306.463 638.798L386.648 486.297C389.107 487.581 391.903 488.306 394.868 488.306C404.696 488.306 412.663 480.339 412.663 470.512C412.663 460.685 404.696 452.718 394.868 452.718C394.728 452.718 394.589 452.72 394.449 452.723L391.788 322.67C404.669 321.241 414.686 310.319 414.686 297.057C414.686 282.823 403.147 271.285 388.914 271.285C385.003 271.285 381.295 272.156 377.974 273.715L303.598 145.886C311.646 140.344 316.922 131.065 316.922 120.555C316.922 103.58 303.161 89.8196 286.187 89.8196C274.263 89.8196 263.925 96.6097 258.828 106.534ZM-279.648 240.227C-277.897 242.087 -276.498 244.282 -275.558 246.705L-251.489 240.514C-251.782 238.829 -251.935 237.096 -251.935 235.328C-251.935 218.739 -238.487 205.291 -221.898 205.291C-218.178 205.291 -214.616 205.967 -211.327 207.204L-160.977 99.3764C-161.128 99.2831 -161.277 99.1878 -161.425 99.0905L-279.648 240.227ZM-274.211 253.937C-274.211 264.006 -281.653 272.338 -291.337 273.732L-287.427 421.182C-286.693 421.249 -285.97 421.354 -285.261 421.498L-233.392 263.087C-241.317 259.802 -247.53 253.223 -250.324 245.058L-274.389 251.25C-274.271 252.129 -274.211 253.026 -274.211 253.937ZM-292.574 403.063L-292.09 421.301C-293.864 421.554 -295.562 422.039 -297.154 422.725C-297.967 422.585 -298.798 422.499 -299.644 422.473L-294.841 318.126L-292.574 403.063ZM-256.53 562.571L-294.806 460.318C-293.041 460.827 -291.175 461.101 -289.246 461.101C-288.125 461.101 -287.025 461.008 -285.954 460.831L-256.53 562.571ZM-243.449 591.12L-281.516 459.552C-280.373 459.073 -279.284 458.49 -278.261 457.816L-155.244 604.313C-161.127 609.898 -165.244 617.325 -166.673 625.669L-207.719 621.157C-207.71 620.858 -207.705 620.558 -207.705 620.257C-207.705 603.83 -221.021 590.514 -237.448 590.514C-239.504 590.514 -241.511 590.723 -243.449 591.12ZM-221.751 517.865L-274.691 454.817C-271.315 451.236 -269.246 446.41 -269.246 441.101C-269.246 440.148 -269.313 439.21 -269.442 438.293L-185.91 416.218C-181.558 467.507 -160.473 515.339 -125.272 553.335L-128.267 593.754C-128.435 593.752 -128.603 593.751 -128.771 593.751C-137.353 593.751 -145.278 596.562 -151.676 601.313L-221.751 517.865ZM-186.265 411.463L-270.639 433.754C-272.53 428.967 -276.216 425.084 -280.867 422.935L-229.013 264.517C-226.732 265.071 -224.35 265.365 -221.898 265.365C-216.327 265.365 -211.11 263.848 -206.638 261.205L-171.068 312.186C-181.367 338.625 -186.753 367.024 -186.753 396.253C-186.753 401.35 -186.589 406.422 -186.265 411.463ZM-93.5035 616.85C-98.7709 604.77 -110.063 595.92 -123.584 594.097L-120.904 557.925C-120.272 558.572 -119.636 559.215 -118.996 559.855C-100.833 578.002 -80.1896 592.767 -57.8289 603.826L-93.5035 616.85ZM-91.6285 642.208C-90.7719 639.019 -90.3151 635.666 -90.3151 632.206C-90.3151 628.387 -90.8718 624.698 -91.9084 621.216L-51.9468 606.632C-22.0503 620.373 10.7202 627.613 44.6071 627.613C57.1234 627.613 69.4901 626.625 81.6178 624.687L103.695 694.732C99.3525 696.686 95.8333 700.144 93.801 704.443L-91.6285 642.208ZM-109.049 665.227C-101.911 660.954 -96.2736 654.433 -93.1161 646.641L92.314 708.876C92.0604 710.091 91.9172 711.348 91.8954 712.634L-59.6803 728.004C-61.5278 720.148 -68.582 714.299 -77.0022 714.299C-79.123 714.299 -81.1572 714.67 -83.0433 715.351L-104.275 674.439L-109.049 665.227ZM-167.182 630.324C-167.212 630.948 -167.227 631.575 -167.227 632.206C-167.227 653.445 -150.01 670.662 -128.771 670.662C-123.225 670.662 -117.953 669.488 -113.19 667.375L-87.2009 717.51C-88.2752 718.263 -89.2625 719.131 -90.1447 720.097L-113.56 703.786L-211.785 635.302C-210.089 632.414 -208.866 629.215 -208.223 625.81L-167.182 630.324ZM-195.615 220.777C-198.305 215.929 -202.298 211.902 -207.121 209.172L-156.762 101.346C-154.783 102.001 -152.667 102.356 -150.469 102.356C-143.703 102.356 -137.721 98.9963 -134.102 93.8541L-61.5889 133.032C-63.6286 137.482 -64.7656 142.431 -64.7656 147.646C-64.7656 152.018 -63.9666 156.203 -62.5067 160.064L-195.615 220.777ZM-202.833 258.539C-196.134 253.03 -191.862 244.678 -191.862 235.328C-191.862 231.708 -192.502 228.237 -193.676 225.024L-60.5691 164.306C-56.7052 171.461 -50.4302 177.122 -42.8327 180.2L-43.4863 182.176C-71.3881 193.654 -97.01 210.664 -118.996 232.65C-140.667 254.339 -157.514 279.568 -168.989 307.033L-202.833 258.539ZM-45.965 731.327L92.3604 717.301C94.186 725.591 101.155 731.952 109.752 732.867C108.614 734.709 107.802 736.774 107.398 738.982L5.35654 733.895L-45.965 731.327ZM139.48 732.001C136.844 728.243 132.793 725.551 128.101 724.699C130.486 721.406 131.892 717.357 131.892 712.98C131.892 711.642 131.761 710.335 131.511 709.071L270.129 664.211L139.48 732.001ZM278.656 656.529L130.065 704.616C129.376 703.121 128.507 701.725 127.486 700.456L262.349 563.362C268.245 568.417 275.906 571.47 284.281 571.47C284.658 571.47 285.033 571.464 285.407 571.452L292.037 635.992C284.197 637.851 278.365 644.898 278.365 653.307C278.365 654.407 278.464 655.484 278.656 656.529ZM259.023 560.088L124.151 697.176C120.765 694.546 116.512 692.98 111.892 692.98C110.625 692.98 109.384 693.098 108.182 693.324L86.2863 623.892C132.206 615.585 174.494 593.571 208.21 559.855C212.329 555.732 216.275 551.482 220.042 547.112L251.094 543.724C252.203 549.934 255.012 555.555 259.023 560.088ZM-115.988 71.8704L-42.8121 44.2367C-40.6558 48.0623 -37.1253 51.0101 -32.8904 52.4104L-115.988 71.8704ZM-9.85599 39.0417C-10.5675 42.5775 -12.3271 45.7341 -14.7969 48.1732L41.0879 35.0859L-9.85599 39.0417ZM386.077 455.038L349.813 317.607C348.704 317.777 347.569 317.865 346.413 317.865C345.316 317.865 344.238 317.786 343.183 317.633L294.911 505.754C301.665 507.996 307.471 512.317 311.571 517.958L315.606 515.439L378.082 476.428C377.429 474.577 377.074 472.586 377.074 470.512C377.074 463.882 380.7 458.099 386.077 455.038ZM290.045 570.979C305.918 568.245 317.994 554.411 317.994 537.757C317.994 532.021 316.561 526.62 314.035 521.891L326.365 514.191L380.2 480.588C380.951 481.68 381.822 482.684 382.792 483.581L302.326 636.61C300.561 635.958 298.664 635.578 296.686 635.52L290.045 570.979ZM264.157 510.706C255.909 516.852 250.568 526.681 250.568 537.757C250.568 538.189 250.576 538.619 250.592 539.047L224.399 541.907C236.222 527.361 246.136 511.589 254.012 494.9L264.157 510.706ZM268.081 508.184L256.318 489.855C269.194 460.759 275.967 429.028 275.967 396.253C275.967 368.365 271.071 341.233 261.681 315.837L325.242 302.464C327.333 308.941 332.314 314.119 338.665 316.479L290.393 504.596C288.411 504.233 286.368 504.044 284.281 504.044C278.409 504.044 272.889 505.545 268.081 508.184ZM389.739 450.679L354.308 316.423C358.884 314.686 362.737 311.481 365.295 307.385C369.048 315.956 377.329 322.092 387.113 322.767L389.739 450.679ZM373.969 276.058C370.662 278.416 367.936 281.535 366.046 285.16C362.303 278.15 354.915 273.38 346.413 273.38C344.71 273.38 343.052 273.572 341.459 273.934L298.405 148.766C298.796 148.596 299.182 148.419 299.564 148.234L373.969 276.058ZM293.956 150.3L337.002 275.463C335.461 276.184 334.016 277.076 332.693 278.115L219.312 161.044C224.163 155.584 227.11 148.394 227.11 140.516C227.11 139.014 227.003 137.537 226.796 136.093L256.754 129.437C260.565 142.081 272.3 151.29 286.187 151.29C288.871 151.29 291.474 150.946 293.956 150.3ZM215.953 164.295L329.346 281.358C326.115 285.22 324.17 290.194 324.17 295.623C324.17 296.38 324.208 297.127 324.282 297.865L259.986 311.395C248.509 282.237 231.043 255.483 208.21 232.65C200.443 224.89 192.223 217.748 183.609 211.251L192.108 171.168C193.444 171.344 194.807 171.435 196.191 171.435C203.706 171.435 210.595 168.754 215.953 164.295ZM-74.0742 120.986L-131.878 89.745C-130.969 87.4592 -130.469 84.9661 -130.469 82.3562C-130.469 81.595 -130.511 80.8438 -130.594 80.1048L42.5352 39.5476C44.0101 44.2041 46.5772 48.3748 49.9358 51.7588L-8.55392 119.582C-14.428 115.159 -21.7355 112.536 -29.6554 112.536C-42.1664 112.536 -53.149 119.08 -59.3673 128.931L-74.0742 120.986ZM187.506 170.198C175.678 166.743 166.784 156.411 165.446 143.822L5.43369 148.878C5.16364 156.712 2.32687 163.895 -2.2619 169.61C12.9926 166.49 28.6765 164.893 44.6071 164.893C93.6738 164.893 140.4 180.072 179.45 208.185L187.506 170.198Z" fill="url(#paint0_linear_495_1307)"/>
<defs>
<linearGradient id="paint0_linear_495_1307" x1="535.693" y1="412.974" x2="247.375" y2="417.397" gradientUnits="userSpaceOnUse">
<stop stop-color="white"/>
<stop offset="1" stop-color="#FAFAFA"/>
</linearGradient>
</defs>
</svg>
