<svg width="89" height="88" viewBox="0 0 89 88" fill="none" xmlns="http://www.w3.org/2000/svg">
<g clip-path="url(#clip0_149_16839)">
<path d="M44.2893 70.9065C37.504 70.9065 31.1264 68.2626 26.327 63.4673C21.5277 58.6679 18.8878 52.2903 18.8878 45.505C18.8878 38.7197 21.5317 32.3421 26.327 27.5427C31.1264 22.7434 37.504 20.1035 44.2893 20.1035C51.0746 20.1035 57.4522 22.7474 62.2516 27.5427C67.051 32.3421 69.6908 38.7197 69.6908 45.505C69.6908 52.2903 67.0469 58.6679 62.2516 63.4673C57.4522 68.2667 51.0706 70.9065 44.2893 70.9065Z" fill="#FDBE67"/>
<path d="M44.1601 69.9295C30.7147 69.9295 19.7718 58.9907 19.7718 45.5412C19.7718 32.0917 30.7106 21.1528 44.1601 21.1528C57.6096 21.1528 68.5485 32.0917 68.5485 45.5412C68.5485 58.9907 57.6096 69.9295 44.1601 69.9295ZM45.6133 55.2408C45.5204 55.2408 45.4357 55.2771 45.367 55.3417C45.2984 55.4063 45.2581 55.4991 45.2581 55.596V67.2049C45.2581 67.3139 45.3065 67.4148 45.3913 67.4794C45.4558 67.5278 45.5325 67.5561 45.6092 67.5561C45.6334 67.5561 45.6617 67.552 45.6859 67.548C49.3954 66.7044 52.7982 62.7325 54.7922 56.9281C54.8245 56.8352 54.8164 56.7343 54.768 56.6455C54.7236 56.5607 54.6428 56.4961 54.546 56.4719C51.7608 55.7575 48.7577 55.3417 45.6213 55.2448C45.6213 55.2408 45.6173 55.2408 45.6133 55.2408ZM42.6949 55.2448C39.5545 55.3458 36.5514 55.7575 33.7703 56.4719C33.6734 56.4961 33.5927 56.5607 33.5483 56.6455C33.4998 56.7303 33.4917 56.8352 33.524 56.9281C35.514 62.7325 38.9208 66.7044 42.6303 67.548C42.6545 67.552 42.6828 67.5561 42.707 67.5561C42.7877 67.5561 42.8644 67.5278 42.925 67.4794C43.0097 67.4108 43.0582 67.3098 43.0582 67.2049V55.596C43.0582 55.4991 43.0178 55.4103 42.9492 55.3417C42.8846 55.2771 42.7958 55.2408 42.703 55.2408C42.703 55.2408 42.6989 55.2408 42.6949 55.2448ZM31.0255 57.3277C30.9851 57.3277 30.9447 57.3357 30.9044 57.3478C29.5118 57.8524 28.2363 58.4377 27.1182 59.0835C27.0294 59.136 26.9648 59.2248 26.9486 59.3257C26.9284 59.4266 26.9567 59.5316 27.0213 59.6123C29.1566 62.2077 31.8973 64.3188 34.9529 65.7154C35.0014 65.7356 35.0498 65.7477 35.0983 65.7477C35.2032 65.7477 35.3082 65.6993 35.3768 65.6105C35.4777 65.4813 35.4736 65.2997 35.3727 65.1746C33.7137 63.1361 32.3615 60.577 31.3565 57.5699C31.3242 57.481 31.2596 57.4044 31.1748 57.364C31.1304 57.3398 31.0779 57.3277 31.0255 57.3277ZM57.2988 57.3236C57.2464 57.3236 57.1939 57.3357 57.1454 57.36C57.0607 57.4003 56.9961 57.477 56.9638 57.5658C55.9547 60.577 54.6025 63.1361 52.9475 65.1746C52.8426 65.2997 52.8426 65.4813 52.9435 65.6105C53.0121 65.6993 53.1171 65.7477 53.222 65.7477C53.2704 65.7477 53.3229 65.7356 53.3673 65.7154C56.4229 64.3148 59.1637 62.2037 61.299 59.6123C61.3636 59.5316 61.3918 59.4266 61.3716 59.3257C61.3514 59.2248 61.2909 59.136 61.2021 59.0835C60.0719 58.4296 58.8004 57.8443 57.4199 57.3438C57.3796 57.3317 57.3392 57.3236 57.2988 57.3236ZM59.1435 46.6431C58.9538 46.6431 58.7964 46.7925 58.7923 46.9822C58.7035 49.6907 58.3523 52.3224 57.755 54.8049C57.7146 54.9784 57.8115 55.1601 57.981 55.2206C59.6763 55.8221 61.2102 56.5244 62.5462 57.3196C62.6028 57.3519 62.6633 57.368 62.7238 57.368C62.8409 57.368 62.958 57.3075 63.0225 57.2025C64.9237 54.1389 66.0539 50.6191 66.2921 47.0185C66.3002 46.9216 66.2638 46.8248 66.1992 46.7562C66.1306 46.6835 66.0378 46.6431 65.9409 46.6431H59.1435ZM22.3834 46.6431C22.2865 46.6431 22.1937 46.6835 22.125 46.7562C22.0605 46.8288 22.0241 46.9216 22.0322 47.0185C22.2704 50.6191 23.4006 54.1389 25.3018 57.2025C25.3663 57.3115 25.4834 57.368 25.6004 57.368C25.661 57.368 25.7256 57.3519 25.7781 57.3196C27.1101 56.5284 28.648 55.8221 30.3433 55.2206C30.5128 55.1601 30.6097 54.9825 30.5693 54.8049C29.9719 52.3224 29.6208 49.6907 29.532 46.9822C29.5239 46.7925 29.3705 46.6431 29.1808 46.6431H22.3834ZM32.0911 46.6431C31.9942 46.6431 31.9054 46.6835 31.8368 46.7521C31.7722 46.8207 31.7359 46.9136 31.7399 47.0105C31.8328 49.4606 32.1597 51.8502 32.7087 54.1146C32.7289 54.2075 32.7894 54.2842 32.8701 54.3326C32.9266 54.3649 32.9872 54.381 33.0518 54.381C33.08 54.381 33.1123 54.377 33.1406 54.3689C36.1477 53.5859 39.3688 53.1378 42.7191 53.0369C42.9088 53.0329 43.0622 52.8754 43.0622 52.6857V46.9943C43.0622 46.8006 42.9048 46.6431 42.711 46.6431H32.0911ZM45.6133 46.6431C45.4195 46.6431 45.2621 46.8006 45.2621 46.9943V52.6857C45.2621 52.8754 45.4114 53.0329 45.6052 53.0369C48.9555 53.1378 52.1806 53.5859 55.1837 54.3689C55.212 54.377 55.2443 54.381 55.2725 54.381C55.3371 54.381 55.3977 54.3649 55.4542 54.3326C55.5349 54.2842 55.5914 54.2034 55.6156 54.1146C56.1646 51.8502 56.4875 49.4606 56.5844 47.0105C56.5884 46.9136 56.5521 46.8207 56.4875 46.7521C56.4229 46.6835 56.3301 46.6431 56.2332 46.6431H45.6133ZM62.7238 33.7143C62.6633 33.7143 62.6028 33.7305 62.5462 33.7628C61.2142 34.5539 59.6763 35.2603 57.981 35.8617C57.8115 35.9223 57.7146 36.0999 57.755 36.2775C58.3523 38.7599 58.7035 41.3917 58.7923 44.1002C58.8004 44.2899 58.9538 44.4392 59.1435 44.4392H65.9369C66.0337 44.4392 66.1266 44.3989 66.1952 44.3262C66.2598 44.2535 66.2961 44.1607 66.288 44.0638C66.0499 40.4633 64.9197 36.9435 63.0185 33.8798C62.9539 33.7708 62.8409 33.7143 62.7238 33.7143ZM55.2725 36.7013C55.2443 36.7013 55.212 36.7053 55.1837 36.7134C52.1806 37.4965 48.9555 37.9445 45.6052 38.0455C45.4155 38.0495 45.2621 38.2069 45.2621 38.3966V44.088C45.2621 44.2818 45.4195 44.4392 45.6133 44.4392H56.2292C56.326 44.4392 56.4148 44.3989 56.4835 44.3302C56.548 44.2616 56.5844 44.1688 56.5803 44.0719C56.4875 41.6218 56.1605 39.2322 55.6116 36.9677C55.5914 36.8749 55.5309 36.7982 55.4501 36.7497C55.3977 36.7175 55.3371 36.7013 55.2725 36.7013ZM33.0477 36.7013C32.9832 36.7013 32.9226 36.7175 32.8661 36.7497C32.7854 36.7982 32.7248 36.8789 32.7046 36.9677C32.1557 39.2322 31.8287 41.6258 31.7359 44.0719C31.7318 44.1688 31.7682 44.2616 31.8328 44.3302C31.8973 44.3989 31.9902 44.4392 32.0871 44.4392H42.703C42.8967 44.4392 43.0541 44.2818 43.0541 44.088V38.3966C43.0541 38.2069 42.9048 38.0495 42.711 38.0455C39.3608 37.9445 36.1397 37.4965 33.1325 36.7134C33.1083 36.7053 33.08 36.7013 33.0477 36.7013ZM25.6004 33.7143C25.4834 33.7143 25.3663 33.7749 25.3018 33.8798C23.4006 36.9435 22.2704 40.4633 22.0322 44.0638C22.0241 44.1607 22.0605 44.2576 22.125 44.3262C22.1937 44.3989 22.2865 44.4392 22.3834 44.4392H29.1768C29.3665 44.4392 29.5239 44.2899 29.5279 44.1002C29.6167 41.3917 29.9679 38.7599 30.5653 36.2775C30.6057 36.1039 30.5088 35.9223 30.3393 35.8617C28.6399 35.2603 27.1061 34.5539 25.774 33.7628C25.7215 33.7305 25.661 33.7143 25.6004 33.7143ZM45.6133 23.5263C45.5325 23.5263 45.4558 23.5545 45.3953 23.603C45.3105 23.6716 45.2621 23.7725 45.2621 23.8774V35.4863C45.2621 35.5832 45.3025 35.672 45.3711 35.7406C45.4357 35.8052 45.5245 35.8415 45.6173 35.8415C45.6213 35.8415 45.6254 35.8415 45.6294 35.8415C48.7698 35.7447 51.7729 35.3289 54.554 34.6145C54.6509 34.5902 54.7316 34.5257 54.776 34.4409C54.8245 34.3561 54.8326 34.2512 54.8003 34.1583C52.8103 28.3539 49.4075 24.382 45.694 23.5384C45.6657 23.5303 45.6415 23.5263 45.6133 23.5263ZM42.707 23.5263C42.6828 23.5263 42.6545 23.5303 42.6303 23.5343C38.9208 24.378 35.5181 28.3458 33.524 34.1543C33.4917 34.2471 33.4998 34.348 33.5483 34.4369C33.5967 34.5216 33.6734 34.5862 33.7703 34.6104C36.5554 35.3289 39.5586 35.7406 42.6949 35.8415C42.6989 35.8415 42.703 35.8415 42.707 35.8415C42.7998 35.8415 42.8846 35.8052 42.9532 35.7406C43.0218 35.676 43.0622 35.5832 43.0622 35.4863V23.8774C43.0622 23.7685 43.0138 23.6676 42.929 23.603C42.8644 23.5545 42.7877 23.5263 42.707 23.5263ZM53.218 25.3306C53.113 25.3306 53.0081 25.379 52.9394 25.4678C52.8385 25.597 52.8426 25.7786 52.9435 25.9038C54.6025 27.9422 55.9547 30.5053 56.9598 33.5125C56.988 33.6013 57.0566 33.678 57.1414 33.7184C57.1898 33.7426 57.2423 33.7547 57.2948 33.7547C57.3352 33.7547 57.3755 33.7466 57.4159 33.7345C58.8004 33.234 60.0719 32.6487 61.1981 31.9948C61.2869 31.9423 61.3474 31.8535 61.3676 31.7526C61.3878 31.6517 61.3595 31.5467 61.2949 31.466C59.1596 28.8706 56.4189 26.7635 53.3633 25.3629C53.3189 25.3427 53.2704 25.3306 53.218 25.3306ZM35.1023 25.3306C35.0539 25.3306 35.0014 25.3427 34.957 25.3629C31.9014 26.7635 29.1606 28.8746 27.0253 31.466C26.9607 31.5467 26.9325 31.6517 26.9527 31.7526C26.9728 31.8535 27.0334 31.9423 27.1222 31.9948C28.2403 32.6406 29.5118 33.2259 30.9084 33.7305C30.9488 33.7426 30.9891 33.7506 31.0295 33.7506C31.082 33.7506 31.1344 33.7385 31.1829 33.7143C31.2677 33.674 31.3322 33.5973 31.3645 33.5085C32.3736 30.5013 33.7259 27.9422 35.3808 25.9038C35.4858 25.7786 35.4858 25.597 35.3848 25.4678C35.3122 25.379 35.2072 25.3306 35.1023 25.3306Z" fill="#353535"/>
<path d="M53.105 83.7428C53.1009 83.7428 53.0969 83.7428 53.0928 83.7428L30.9246 82.6368C30.8761 82.6328 30.8317 82.6166 30.7913 82.5924L13.1762 70.3094C13.1318 70.2812 13.0995 70.2368 13.0834 70.1883L5.8823 50.9546C5.87019 50.9223 5.86615 50.8859 5.86615 50.8536L6.83087 29.8721C6.8349 29.8156 6.85509 29.7631 6.89141 29.7187L22.674 10.8805C22.7023 10.8482 22.7386 10.8199 22.779 10.8038L35.51 5.99636C35.5342 5.98828 35.5544 5.98425 35.5786 5.98021L47.2157 5.08008C47.2601 5.08008 47.2965 5.08411 47.3328 5.10026L70.9017 15.0017C70.9542 15.0219 70.9946 15.0623 71.0228 15.1107L82.3007 34.4938C82.3209 34.5302 82.333 34.5746 82.3371 34.619L82.7246 53.6267C82.7246 53.6711 82.7165 53.7115 82.6963 53.7518L72.1248 73.8575C72.1006 73.9019 72.0643 73.9422 72.0158 73.9665L53.2139 83.7226C53.1897 83.7347 53.1453 83.7428 53.105 83.7428ZM31.0255 82.1282L53.0525 83.2302L71.7211 73.5426L82.224 53.5662L81.8365 34.6916L70.6313 15.4417L47.1956 5.59675L35.6553 6.49284L23.0211 11.2639L7.33946 29.9851L6.37878 50.8294L13.5314 69.9421L31.0255 82.1282Z" fill="#CFCFCF"/>
<path d="M36.1363 18.4648C36.0959 18.4648 36.0515 18.4567 36.0152 18.4325L22.7514 11.2637C22.6585 11.2153 22.6061 11.1103 22.6182 11.0054C22.6343 10.9004 22.711 10.8157 22.8119 10.7915L47.1841 5.0839C47.2931 5.05968 47.4021 5.10408 47.4626 5.20095C47.5192 5.29379 47.5111 5.41489 47.4384 5.49965L36.3341 18.376C36.2816 18.4365 36.209 18.4648 36.1363 18.4648ZM23.5869 11.1386L36.0798 17.8876L46.5383 5.76202L23.5869 11.1386Z" fill="#CFCFCF"/>
<path d="M22.872 11.2998C22.763 11.2998 22.6621 11.2271 22.6258 11.1181C22.5854 10.989 22.654 10.8517 22.7792 10.8033L35.5102 5.99587C35.5344 5.9878 35.5546 5.98376 35.5788 5.97972L47.2159 5.07959C47.3653 5.07152 47.4662 5.16436 47.4864 5.29352C47.5066 5.42673 47.4218 5.55186 47.2926 5.58011L22.9204 11.2877C22.9083 11.2958 22.8922 11.2998 22.872 11.2998ZM35.6595 6.48832L26.6057 9.90721L43.9343 5.84652L35.6595 6.48832Z" fill="#CFCFCF"/>
<path d="M36.1364 18.4647C36.0395 18.4647 35.9466 18.4081 35.9063 18.3193C35.8619 18.2265 35.878 18.1175 35.9426 18.0408L47.0469 5.16449C47.0913 5.11201 47.1559 5.07972 47.2245 5.07568C47.2932 5.07568 47.3577 5.09587 47.4102 5.14027L61.1019 17.2335C61.1786 17.3021 61.2069 17.4111 61.1746 17.512C61.1382 17.6089 61.0454 17.6775 60.9405 17.6816L36.1444 18.4647C36.1444 18.4647 36.1404 18.4647 36.1364 18.4647ZM47.2649 5.6973L36.7095 17.9359L60.2785 17.1932L47.2649 5.6973Z" fill="#CFCFCF"/>
<path d="M60.9323 17.6819C60.8718 17.6819 60.8112 17.6577 60.7628 17.6174L47.0711 5.5241C46.9782 5.43933 46.9581 5.30209 47.0227 5.19714C47.0913 5.09219 47.2245 5.04779 47.3375 5.09623L70.9064 14.9977C71.0073 15.0421 71.0719 15.147 71.0639 15.256C71.0558 15.365 70.9751 15.4578 70.8661 15.4821L60.9848 17.6739C60.9686 17.6819 60.9525 17.6819 60.9323 17.6819ZM48.5767 6.16993L61.005 17.1491L69.974 15.1591L48.5767 6.16993Z" fill="#CFCFCF"/>
<path d="M77.4251 34.7116C77.3565 34.7116 77.2919 34.6833 77.2434 34.6349L60.7504 17.605C60.6858 17.5404 60.6616 17.4435 60.6899 17.3547C60.7181 17.2659 60.7868 17.1973 60.8796 17.1771L70.7609 14.9853C70.89 14.9571 71.0152 15.0297 71.0596 15.1508L77.6713 34.3725C77.7117 34.4855 77.6673 34.6106 77.5623 34.6752C77.5179 34.6994 77.4695 34.7116 77.4251 34.7116ZM61.4326 17.5767L76.8075 33.4522L70.6438 15.5303L61.4326 17.5767Z" fill="#CFCFCF"/>
<path d="M82.0908 34.8729C82.0868 34.8729 82.0868 34.8729 82.0827 34.8729L77.4166 34.7115C77.3116 34.7074 77.2188 34.6388 77.1825 34.5379L70.5707 15.3162C70.5263 15.1911 70.5869 15.0539 70.7039 15.0014C70.825 14.9489 70.9663 14.9893 71.0309 15.1063L82.3088 34.4895C82.3532 34.5702 82.3532 34.6711 82.3088 34.7478C82.2644 34.8245 82.1837 34.8729 82.0908 34.8729ZM77.6103 34.2069L81.6387 34.3441L71.8987 17.6089L77.6103 34.2069Z" fill="#CFCFCF"/>
<path d="M70.6031 61.2957C70.5507 61.2957 70.4982 61.2795 70.4538 61.2472C70.369 61.1867 70.3327 61.0777 70.3569 60.9768L77.1786 34.3926C77.2068 34.2796 77.3239 34.1948 77.4248 34.1989C77.5418 34.1989 77.6427 34.2756 77.671 34.3886L82.7287 53.5578C82.757 53.6668 82.7126 53.7798 82.6157 53.8403L70.7363 61.2553C70.696 61.2836 70.6516 61.2957 70.6031 61.2957ZM77.4288 35.4704L71.0108 60.4844L82.1878 53.5053L77.4288 35.4704Z" fill="#CFCFCF"/>
<path d="M82.4826 53.8767C82.3696 53.8767 82.2646 53.8 82.2364 53.687L77.1787 34.5178C77.1585 34.4411 77.1747 34.3563 77.2271 34.2918C77.2756 34.2272 77.3482 34.1908 77.437 34.1949L82.1032 34.3563C82.2364 34.3604 82.3454 34.4694 82.3494 34.6066L82.7369 53.5417C82.745 53.5659 82.749 53.5901 82.749 53.6184C82.749 53.7597 82.6118 53.8807 82.4907 53.8727C82.4826 53.8767 82.4826 53.8767 82.4826 53.8767ZM77.7599 34.7237L82.1839 51.4871L81.8449 34.8649L77.7599 34.7237Z" fill="#CFCFCF"/>
<path d="M71.907 73.9865C71.8909 73.9865 71.8747 73.9865 71.8586 73.9824C71.7496 73.9623 71.6648 73.8694 71.6527 73.7564L70.349 61.0657C70.3409 60.9689 70.3853 60.876 70.466 60.8236L82.3453 53.4086C82.4422 53.348 82.5714 53.3601 82.6562 53.4368C82.7409 53.5135 82.7611 53.6386 82.7086 53.7436L72.1371 73.8492C72.0887 73.934 72.0039 73.9865 71.907 73.9865ZM70.8737 61.1707L72.0766 72.8603L81.8166 54.337L70.8737 61.1707Z" fill="#CFCFCF"/>
<path d="M51.6766 80.5337C51.5878 80.5337 51.5071 80.4893 51.4587 80.4126C51.3981 80.3116 51.4102 80.1825 51.495 80.0977L70.422 60.8599C70.4906 60.7913 70.5956 60.763 70.6884 60.7994C70.7813 60.8317 70.8499 60.9164 70.8579 61.0133L72.1617 73.704C72.1738 73.825 72.1012 73.934 71.9882 73.9744L51.7574 80.5215C51.7291 80.5296 51.7049 80.5337 51.6766 80.5337ZM70.4059 61.6067L52.5929 79.7143L71.637 73.5506L70.4059 61.6067Z" fill="#CFCFCF"/>
<path d="M53.1051 83.7427C53.0768 83.7427 53.0485 83.7387 53.0203 83.7266C52.9557 83.7023 52.8992 83.6539 52.8709 83.5893L51.442 80.3803C51.4138 80.3157 51.4138 80.2391 51.442 80.1704C51.4703 80.1059 51.5268 80.0534 51.5954 80.0332L71.8262 73.4861C71.9554 73.4457 72.0886 73.5062 72.141 73.6314C72.1935 73.7525 72.141 73.8937 72.024 73.9583L53.2221 83.7145C53.1858 83.7346 53.1454 83.7427 53.1051 83.7427ZM52.0273 80.4328L53.2302 83.1332L69.0612 74.919L52.0273 80.4328Z" fill="#CFCFCF"/>
<path d="M53.1056 83.7424C53.1015 83.7424 53.0975 83.7424 53.0935 83.7424L30.9252 82.6364C30.792 82.6283 30.687 82.5234 30.683 82.3862C30.6789 82.2529 30.7799 82.1399 30.9131 82.1238L51.6524 80.0208C51.7695 80.0127 51.8664 80.0692 51.9108 80.1701L53.3397 83.3791C53.376 83.4599 53.3679 83.5527 53.3155 83.6294C53.2711 83.702 53.1903 83.7424 53.1056 83.7424ZM34.3279 82.2933L52.706 83.2096L51.5192 80.5496L34.3279 82.2933Z" fill="#CFCFCF"/>
<path d="M30.9366 82.6364C30.8438 82.6364 30.7549 82.584 30.7105 82.4992L25.0232 71.5281C24.9747 71.4352 24.9868 71.3222 25.0555 71.2455C25.1241 71.1648 25.2331 71.1365 25.3299 71.1688L51.7527 80.037C51.8657 80.0773 51.9383 80.1863 51.9262 80.3074C51.9141 80.4285 51.8172 80.5213 51.7002 80.5334L30.9608 82.6364C30.9568 82.6364 30.9447 82.6364 30.9366 82.6364ZM25.7699 71.855L31.0859 82.1117L50.4731 80.1459L25.7699 71.855Z" fill="#CFCFCF"/>
<path d="M30.937 82.6367C30.8845 82.6367 30.8361 82.6206 30.7917 82.5923L13.1765 70.3093C13.0796 70.2407 13.0433 70.1196 13.0837 70.0106C13.124 69.9016 13.229 69.833 13.3501 69.8451L25.2779 71.157C25.3626 71.1651 25.4393 71.2175 25.4756 71.2942L31.1671 82.2613C31.2195 82.3663 31.1953 82.4914 31.1106 82.5721C31.0581 82.6125 30.9975 82.6367 30.937 82.6367ZM14.2906 70.4627L30.2346 81.5791L25.0881 71.6494L14.2906 70.4627Z" fill="#CFCFCF"/>
<path d="M25.2538 71.6656C25.2457 71.6656 25.2336 71.6656 25.2255 71.6656L13.2978 70.3537C13.1968 70.3416 13.108 70.269 13.0798 70.1721L7.3924 50.5024C7.36011 50.3853 7.41258 50.2642 7.51753 50.2077C7.62248 50.1512 7.75568 50.1754 7.83237 50.2682L25.4516 71.2498C25.5202 71.3305 25.5323 71.4436 25.4798 71.5364C25.4354 71.6131 25.3466 71.6656 25.2538 71.6656ZM13.5198 69.8613L24.6443 71.0843L8.2118 51.5155L13.5198 69.8613Z" fill="#CFCFCF"/>
<path d="M13.3217 70.3535C13.2167 70.3535 13.1198 70.2889 13.0835 70.188L5.88245 50.9543C5.85823 50.8856 5.86227 50.813 5.89456 50.7484C5.92685 50.6838 5.98336 50.6354 6.05198 50.6192L7.56162 50.1833C7.69483 50.1429 7.8361 50.2237 7.87647 50.3569L13.5477 69.962C13.5719 70.0023 13.5881 70.0467 13.5881 70.0992C13.5881 70.2405 13.475 70.3535 13.3338 70.3535C13.3297 70.3535 13.3257 70.3535 13.3217 70.3535ZM6.45967 51.0309L11.2267 63.766L7.46071 50.7444L6.45967 51.0309Z" fill="#CFCFCF"/>
<path d="M25.2537 71.6655C25.181 71.6655 25.1084 71.6332 25.0599 71.5726L7.44075 50.5911C7.38424 50.5224 7.36809 50.4336 7.39231 50.3489C7.42056 50.2641 7.48515 50.1995 7.56991 50.1793L27.1266 45.0127C27.2073 44.9925 27.2921 45.0127 27.3567 45.0611C27.4213 45.1136 27.4536 45.1943 27.4495 45.275L25.512 71.4233C25.5039 71.5282 25.4353 71.617 25.3344 71.6453C25.3062 71.6614 25.2779 71.6655 25.2537 71.6655ZM8.09062 50.5749L25.0438 70.7653L26.9086 45.602L8.09062 50.5749Z" fill="#CFCFCF"/>
<path d="M7.63469 50.6838C7.62258 50.6838 7.61047 50.6838 7.59837 50.6798C7.47727 50.6636 7.38443 50.5587 7.3804 50.4336L6.83547 29.8839C6.83144 29.7668 6.91217 29.6579 7.02519 29.6296L14.9649 27.5872C15.0578 27.5629 15.1506 27.5912 15.2152 27.6598C15.2798 27.7284 15.2999 27.8253 15.2717 27.9141L7.87688 50.5062C7.84459 50.6152 7.74368 50.6838 7.63469 50.6838ZM7.35214 30.0777L7.85266 48.9481L14.646 28.2007L7.35214 30.0777Z" fill="#CFCFCF"/>
<path d="M6.12454 51.1198C6.06803 51.1198 6.01151 51.0996 5.96711 51.0633C5.90253 51.0108 5.8662 50.9341 5.87024 50.8494L6.83495 29.8678C6.83899 29.7305 6.96412 29.6216 7.09329 29.6256C7.23053 29.6256 7.34355 29.7386 7.34759 29.8759L7.89251 50.4255C7.89655 50.5426 7.81985 50.6475 7.70683 50.6758L6.19719 51.1117C6.17297 51.1158 6.14875 51.1198 6.12454 51.1198ZM7.02063 36.9276L6.39498 50.5184L7.37584 50.2358L7.02063 36.9276Z" fill="#CFCFCF"/>
<path d="M15.0289 28.0917C14.9602 28.0917 14.8957 28.0675 14.8472 28.015C14.7705 27.9383 14.7503 27.8253 14.7988 27.7284L22.6416 10.9327C22.6699 10.8681 22.7264 10.8197 22.791 10.7995C22.8596 10.7753 22.9323 10.7833 22.9928 10.8156L36.2567 17.9844C36.3414 18.0288 36.3939 18.1216 36.3899 18.2185C36.3858 18.3154 36.3293 18.4002 36.2405 18.4405L15.1338 28.0675C15.1015 28.0877 15.0652 28.0917 15.0289 28.0917ZM22.9888 11.3969L15.5536 27.3167L35.5624 18.1903L22.9888 11.3969Z" fill="#CFCFCF"/>
<path d="M27.1907 45.5172C27.1059 45.5172 27.0292 45.4769 26.9808 45.4082L14.8229 27.9828C14.7785 27.9223 14.7664 27.8415 14.7866 27.7689C14.8068 27.6962 14.8593 27.6357 14.9279 27.6034L36.0346 17.9764C36.1274 17.936 36.2364 17.9522 36.3091 18.0208C36.3858 18.0894 36.414 18.1944 36.3817 18.2912L27.4329 45.3437C27.4006 45.4365 27.3239 45.5011 27.227 45.5172C27.2149 45.5172 27.2028 45.5172 27.1907 45.5172ZM15.4163 27.9424L27.11 44.6978L35.7157 18.6828L15.4163 27.9424Z" fill="#CFCFCF"/>
<path d="M27.1915 45.5171C27.1189 45.5171 27.0502 45.4888 27.0018 45.4323C26.9413 45.3637 26.9211 45.2668 26.9493 45.182L35.8982 18.1296C35.9264 18.0448 35.9951 17.9803 36.0839 17.9601C36.1727 17.9399 36.2615 17.9681 36.3261 18.0287L56.573 38.7035C56.6376 38.7681 56.6618 38.8649 56.6335 38.9538C56.6053 39.0426 56.5326 39.1112 56.4438 39.1314L27.2521 45.513C27.2279 45.517 27.2077 45.5171 27.1915 45.5171ZM36.2494 18.6866L27.575 44.9197L55.8787 38.7358L36.2494 18.6866Z" fill="#CFCFCF"/>
<path d="M25.2537 71.6653C25.1972 71.6653 25.1448 71.6492 25.1004 71.6128C25.0317 71.5604 24.9954 71.4756 24.9994 71.3908L26.937 45.2426C26.945 45.1457 27.0096 45.0569 27.0984 45.0246C27.1913 44.9883 27.2962 45.0085 27.3689 45.0771L46.6228 63.4915C46.6874 63.552 46.7157 63.6408 46.6955 63.7296C46.6793 63.8144 46.6147 63.887 46.534 63.9153L25.3425 71.6492C25.3103 71.6613 25.282 71.6653 25.2537 71.6653ZM27.4052 45.8239L25.5363 71.0356L45.9689 63.5762L27.4052 45.8239Z" fill="#CFCFCF"/>
<path d="M51.6762 80.5336C51.6479 80.5336 51.6197 80.5296 51.5954 80.5215L25.1727 71.6534C25.0718 71.617 24.9991 71.5242 24.9991 71.4152C24.9991 71.3062 25.0637 71.2094 25.1687 71.173L46.3601 63.4392C46.4247 63.4149 46.4974 63.419 46.562 63.4513C46.6265 63.4836 46.6709 63.536 46.6911 63.6046L51.9062 80.1421C51.9345 80.1824 51.9466 80.2309 51.9466 80.2833C51.9466 80.4246 51.8336 80.5376 51.6923 80.5376C51.6842 80.5336 51.6802 80.5336 51.6762 80.5336ZM26.0244 71.3991L51.2806 79.8757L46.2794 64.0083L26.0244 71.3991Z" fill="#CFCFCF"/>
<path d="M51.6767 80.5335C51.6565 80.5335 51.6363 80.5294 51.6161 80.5254C51.5273 80.5052 51.4587 80.4406 51.4345 80.3518L46.1992 63.7498C46.175 63.6772 46.1871 63.5965 46.2274 63.5319C46.2678 63.4673 46.3364 63.4269 46.4131 63.4189L70.5714 60.783C70.6844 60.775 70.7813 60.8274 70.8297 60.9243C70.8782 61.0212 70.858 61.1382 70.7813 61.2149L51.8543 80.4527C51.8099 80.5052 51.7453 80.5335 51.6767 80.5335ZM46.7804 63.8952L51.7937 79.7948L69.9175 61.3724L46.7804 63.8952Z" fill="#CFCFCF"/>
<path d="M46.4408 63.9314C46.3762 63.9314 46.3116 63.9072 46.2632 63.8587L27.0092 45.4444C26.9406 45.3798 26.9164 45.2829 26.9406 45.1901C26.9648 45.1013 27.0415 45.0286 27.1303 45.0084L56.3221 38.6268C56.4149 38.6066 56.5118 38.6389 56.5723 38.7115C56.6329 38.7842 56.649 38.8851 56.6127 38.9699L46.6789 63.7699C46.6466 63.8507 46.578 63.9072 46.4973 63.9233C46.4771 63.9274 46.461 63.9314 46.4408 63.9314ZM27.7116 45.4121L46.3439 63.2331L55.9628 39.2403L27.7116 45.4121Z" fill="#CFCFCF"/>
<path d="M46.4413 63.9316C46.3605 63.9316 46.2879 63.8953 46.2394 63.8307C46.187 63.758 46.1708 63.6652 46.2072 63.5804L56.149 38.7884C56.1853 38.6996 56.266 38.6391 56.3629 38.631C56.4517 38.6189 56.5486 38.6673 56.6011 38.7481L70.8215 60.9042C70.87 60.9769 70.874 61.0738 70.8377 61.1505C70.8014 61.2312 70.7247 61.2837 70.6359 61.2958L46.4776 63.9316C46.4615 63.9316 46.4534 63.9316 46.4413 63.9316ZM56.4356 39.4383L46.8368 63.3745L70.1636 60.8275L56.4356 39.4383Z" fill="#CFCFCF"/>
<path d="M70.6035 61.2957C70.5187 61.2957 70.434 61.2513 70.3896 61.1787L56.1691 39.0225C56.1247 38.9539 56.1166 38.8651 56.1489 38.7843C56.1812 38.7077 56.2498 38.6511 56.3306 38.631L77.3727 34.203C77.4574 34.1828 77.5503 34.211 77.6108 34.2756C77.6714 34.3402 77.6956 34.429 77.6754 34.5178L70.8538 61.102C70.8296 61.1989 70.7488 61.2755 70.6479 61.2917C70.6318 61.2957 70.6156 61.2957 70.6035 61.2957ZM56.7988 39.0588L70.5026 60.4117L77.078 34.7923L56.7988 39.0588Z" fill="#CFCFCF"/>
<path d="M56.3829 39.1394C56.3143 39.1394 56.2497 39.1112 56.2013 39.0627C56.1408 39.0022 56.1125 38.9134 56.1327 38.8286L60.6818 17.3748C60.702 17.2819 60.7706 17.2093 60.8594 17.181C60.9522 17.1528 61.0491 17.181 61.1137 17.2496L77.6067 34.2795C77.6713 34.3481 77.6955 34.441 77.6672 34.5338C77.639 34.6226 77.5663 34.6912 77.4735 34.7074L56.4314 39.1354C56.4193 39.1354 56.3991 39.1394 56.3829 39.1394ZM61.0814 17.952L56.7139 38.5541L76.9205 34.3037L61.0814 17.952Z" fill="#CFCFCF"/>
<path d="M56.3828 39.1395C56.3141 39.1395 56.2496 39.1112 56.2011 39.0628L35.9542 18.388C35.8815 18.3153 35.8614 18.2064 35.9017 18.1135C35.938 18.0207 36.0309 17.9561 36.1318 17.9521L60.9278 17.169C61.0045 17.1569 61.0812 17.2013 61.1337 17.2618C61.1821 17.3224 61.2023 17.4031 61.1862 17.4798L56.6371 38.9336C56.6169 39.0265 56.5483 39.0991 56.4595 39.1274C56.4312 39.1355 56.407 39.1395 56.3828 39.1395ZM36.7252 18.4486L56.2294 38.3645L60.613 17.6937L36.7252 18.4486Z" fill="#CFCFCF"/>
<path d="M56.3819 43.2084C58.7695 43.2084 60.705 41.2729 60.705 38.8853C60.705 36.4978 58.7695 34.5623 56.3819 34.5623C53.9943 34.5623 52.0588 36.4978 52.0588 38.8853C52.0588 41.2729 53.9943 43.2084 56.3819 43.2084Z" fill="white"/>
<path d="M46.4436 68.1859C48.9337 68.1859 50.9523 66.1673 50.9523 63.6772C50.9523 61.1871 48.9337 59.1685 46.4436 59.1685C43.9534 59.1685 41.9348 61.1871 41.9348 63.6772C41.9348 66.1673 43.9534 68.1859 46.4436 68.1859Z" fill="white"/>
<path d="M36.1342 22.0651C38.2632 22.0651 39.9891 20.3393 39.9891 18.2103C39.9891 16.0813 38.2632 14.3555 36.1342 14.3555C34.0053 14.3555 32.2794 16.0813 32.2794 18.2103C32.2794 20.3393 34.0053 22.0651 36.1342 22.0651Z" fill="white"/>
<path d="M60.9306 20.8221C62.8054 20.8221 64.3253 19.3022 64.3253 17.4274C64.3253 15.5526 62.8054 14.0327 60.9306 14.0327C59.0558 14.0327 57.5359 15.5526 57.5359 17.4274C57.5359 19.3022 59.0558 20.8221 60.9306 20.8221Z" fill="white"/>
<path d="M47.2392 8.66825C49.0806 8.66825 50.5733 7.17551 50.5733 5.33412C50.5733 3.49274 49.0806 2 47.2392 2C45.3978 2 43.9051 3.49274 43.9051 5.33412C43.9051 7.17551 45.3978 8.66825 47.2392 8.66825Z" fill="white"/>
<path d="M22.8709 13.2374C24.0836 13.2374 25.0667 12.2543 25.0667 11.0415C25.0667 9.82881 24.0836 8.8457 22.8709 8.8457C21.6582 8.8457 20.675 9.82881 20.675 11.0415C20.675 12.2543 21.6582 13.2374 22.8709 13.2374Z" fill="white"/>
<path d="M70.8582 17.4098C72.01 17.4098 72.9437 16.4761 72.9437 15.3243C72.9437 14.1725 72.01 13.2388 70.8582 13.2388C69.7064 13.2388 68.7727 14.1725 68.7727 15.3243C68.7727 16.4761 69.7064 17.4098 70.8582 17.4098Z" fill="white"/>
<path d="M82.0901 37.444C83.6529 37.444 84.9197 36.1772 84.9197 34.6145C84.9197 33.0517 83.6529 31.7849 82.0901 31.7849C80.5274 31.7849 79.2606 33.0517 79.2606 34.6145C79.2606 36.1772 80.5274 37.444 82.0901 37.444Z" fill="white"/>
<path d="M53.1041 85.442C54.1831 85.442 55.0578 84.5673 55.0578 83.4883C55.0578 82.4094 54.1831 81.5347 53.1041 81.5347C52.0251 81.5347 51.1505 82.4094 51.1505 83.4883C51.1505 84.5673 52.0251 85.442 53.1041 85.442Z" fill="white"/>
<path d="M71.9059 75.6817C72.9849 75.6817 73.8596 74.807 73.8596 73.7281C73.8596 72.6491 72.9849 71.7744 71.9059 71.7744C70.8269 71.7744 69.9523 72.6491 69.9523 73.7281C69.9523 74.807 70.8269 75.6817 71.9059 75.6817Z" fill="white"/>
<path d="M82.7439 55.6126C83.8229 55.6126 84.6976 54.7379 84.6976 53.659C84.6976 52.58 83.8229 51.7053 82.7439 51.7053C81.665 51.7053 80.7903 52.58 80.7903 53.659C80.7903 54.7379 81.665 55.6126 82.7439 55.6126Z" fill="white"/>
<path d="M36.3932 7.85286C37.4722 7.85286 38.3469 6.97818 38.3469 5.89921C38.3469 4.82024 37.4722 3.94556 36.3932 3.94556C35.3143 3.94556 34.4396 4.82024 34.4396 5.89921C34.4396 6.97818 35.3143 7.85286 36.3932 7.85286Z" fill="white"/>
<path d="M13.3221 73.365C15.1256 73.365 16.5876 71.903 16.5876 70.0995C16.5876 68.296 15.1256 66.834 13.3221 66.834C11.5186 66.834 10.0566 68.296 10.0566 70.0995C10.0566 71.903 11.5186 73.365 13.3221 73.365Z" fill="white"/>
<path d="M30.9359 84.3319C32.0149 84.3319 32.8895 83.4572 32.8895 82.3782C32.8895 81.2992 32.0149 80.4246 30.9359 80.4246C29.8569 80.4246 28.9822 81.2992 28.9822 82.3782C28.9822 83.4572 29.8569 84.3319 30.9359 84.3319Z" fill="white"/>
<path d="M6.43131 52.2904C7.51028 52.2904 8.38496 51.4157 8.38496 50.3367C8.38496 49.2577 7.51028 48.3831 6.43131 48.3831C5.35234 48.3831 4.47766 49.2577 4.47766 50.3367C4.47766 51.4157 5.35234 52.2904 6.43131 52.2904Z" fill="white"/>
<path d="M77.4233 36.8993C78.772 36.8993 79.8654 35.8059 79.8654 34.4572C79.8654 33.1085 78.772 32.0151 77.4233 32.0151C76.0746 32.0151 74.9813 33.1085 74.9813 34.4572C74.9813 35.8059 76.0746 36.8993 77.4233 36.8993Z" fill="white"/>
<path d="M70.6019 64.7427C72.6461 64.7427 74.3033 63.0855 74.3033 61.0413C74.3033 58.997 72.6461 57.3398 70.6019 57.3398C68.5576 57.3398 66.9005 58.997 66.9005 61.0413C66.9005 63.0855 68.5576 64.7427 70.6019 64.7427Z" fill="white"/>
<path d="M51.6745 82.4749C52.8872 82.4749 53.8703 81.4918 53.8703 80.2791C53.8703 79.0664 52.8872 78.0833 51.6745 78.0833C50.4617 78.0833 49.4786 79.0664 49.4786 80.2791C49.4786 81.4918 50.4617 82.4749 51.6745 82.4749Z" fill="white"/>
<path d="M15.0292 31.1351C16.8505 31.1351 18.327 29.6587 18.327 27.8373C18.327 26.016 16.8505 24.5396 15.0292 24.5396C13.2079 24.5396 11.7314 26.016 11.7314 27.8373C11.7314 29.6587 13.2079 31.1351 15.0292 31.1351Z" fill="white"/>
<path d="M7.08976 32.0755C8.30249 32.0755 9.2856 31.0924 9.2856 29.8797C9.2856 28.6669 8.30249 27.6838 7.08976 27.6838C5.87703 27.6838 4.89392 28.6669 4.89392 29.8797C4.89392 31.0924 5.87703 32.0755 7.08976 32.0755Z" fill="white"/>
<path d="M25.2527 75.6333C27.5845 75.6333 29.4748 73.7429 29.4748 71.4111C29.4748 69.0793 27.5845 67.189 25.2527 67.189C22.9208 67.189 21.0305 69.0793 21.0305 71.4111C21.0305 73.7429 22.9208 75.6333 25.2527 75.6333Z" fill="white"/>
<path d="M7.63438 52.6253C8.84711 52.6253 9.83021 51.6422 9.83021 50.4295C9.83021 49.2168 8.84711 48.2336 7.63438 48.2336C6.42165 48.2336 5.43854 49.2168 5.43854 50.4295C5.43854 51.6422 6.42165 52.6253 7.63438 52.6253Z" fill="white"/>
<path d="M27.1901 50.0339C29.8251 50.0339 31.9612 47.8978 31.9612 45.2628C31.9612 42.6278 29.8251 40.4917 27.1901 40.4917C24.5551 40.4917 22.419 42.6278 22.419 45.2628C22.419 47.8978 24.5551 50.0339 27.1901 50.0339Z" fill="white"/>
<path d="M54.9783 36.8915C55.4102 36.395 55.943 36.1448 56.5727 36.1448C57.2024 36.1448 57.7352 36.395 58.1671 36.8915C58.599 37.388 58.817 38.054 58.817 38.8855C58.817 39.7171 58.599 40.3831 58.1671 40.8796C57.7352 41.376 57.2024 41.6263 56.5727 41.6263C55.943 41.6263 55.4102 41.376 54.9783 40.8796C54.5464 40.3831 54.3284 39.7171 54.3284 38.8855C54.3244 38.054 54.5424 37.388 54.9783 36.8915ZM57.5657 37.4364C57.2912 37.0853 56.9562 36.9077 56.5727 36.9077C56.1852 36.9077 55.8542 37.0853 55.5797 37.4364C55.3052 37.7876 55.164 38.272 55.164 38.8855C55.164 39.4991 55.3012 39.9835 55.5797 40.3387C55.8582 40.6939 56.1892 40.8674 56.5727 40.8674C56.9602 40.8674 57.2912 40.6898 57.5657 40.3387C57.8401 39.9875 57.9814 39.5031 57.9814 38.8855C57.9814 38.268 57.8442 37.7876 57.5657 37.4364Z" fill="#353535"/>
<path d="M59.782 15.8694C60.0969 15.5061 60.4884 15.3245 60.9486 15.3245C61.4087 15.3245 61.7962 15.5061 62.1151 15.8694C62.4299 16.2327 62.5914 16.717 62.5914 17.3266C62.5914 17.9361 62.434 18.4204 62.1151 18.7837C61.8003 19.147 61.4087 19.3286 60.9486 19.3286C60.4884 19.3286 60.1009 19.147 59.782 18.7837C59.4631 18.4204 59.3057 17.9361 59.3057 17.3266C59.3057 16.717 59.4631 16.2327 59.782 15.8694ZM61.6751 16.265C61.4733 16.0066 61.2311 15.8775 60.9486 15.8775C60.666 15.8775 60.4238 16.0066 60.222 16.265C60.0202 16.5233 59.9193 16.8745 59.9193 17.3225C59.9193 17.7706 60.0202 18.1258 60.222 18.3841C60.4238 18.6424 60.666 18.7716 60.9486 18.7716C61.2311 18.7716 61.4733 18.6424 61.6751 18.3841C61.877 18.1258 61.9779 17.7746 61.9779 17.3225C61.9779 16.8704 61.877 16.5233 61.6751 16.265Z" fill="#353535"/>
<path d="M44.9757 61.6549C45.4076 61.1585 45.9405 60.9082 46.5701 60.9082C47.1998 60.9082 47.7326 61.1585 48.1645 61.6549C48.5965 62.1514 48.8144 62.8175 48.8144 63.649C48.8144 64.4805 48.5965 65.1465 48.1645 65.643C47.7326 66.1395 47.1998 66.3897 46.5701 66.3897C45.9405 66.3897 45.4076 66.1395 44.9757 65.643C44.5438 65.1465 44.3259 64.4805 44.3259 63.649C44.3259 62.8175 44.5438 62.1514 44.9757 61.6549ZM47.5631 62.1999C47.2886 61.8487 46.9536 61.6711 46.5701 61.6711C46.1826 61.6711 45.8517 61.8487 45.5772 62.1999C45.3027 62.551 45.1614 63.0354 45.1614 63.649C45.1614 64.2625 45.2987 64.7469 45.5772 65.1021C45.8517 65.4533 46.1867 65.6309 46.5701 65.6309C46.9576 65.6309 47.2886 65.4533 47.5631 65.1021C47.8376 64.7509 47.9789 64.2665 47.9789 63.649C47.9789 63.0314 47.8416 62.551 47.5631 62.1999Z" fill="#353535"/>
<path d="M69.3522 59.5683C69.6872 59.1848 70.0949 58.9951 70.5753 58.9951C71.0596 58.9951 71.4673 59.1848 71.7983 59.5683C72.1333 59.9518 72.2988 60.4604 72.2988 61.0981C72.2988 61.7359 72.1333 62.2485 71.7983 62.6279C71.4633 63.0114 71.0556 63.2011 70.5753 63.2011C70.0909 63.2011 69.6832 63.0114 69.3522 62.6279C69.0172 62.2445 68.8517 61.7359 68.8517 61.0981C68.8517 60.4604 69.0172 59.9518 69.3522 59.5683ZM71.3382 59.9881C71.1242 59.7176 70.8699 59.5844 70.5753 59.5844C70.2766 59.5844 70.0223 59.7176 69.8124 59.9881C69.5984 60.2585 69.4935 60.6299 69.4935 61.1022C69.4935 61.5744 69.5984 61.9458 69.8124 62.2162C70.0263 62.4867 70.2806 62.6239 70.5753 62.6239C70.874 62.6239 71.1283 62.4867 71.3382 62.2162C71.5521 61.9458 71.657 61.5744 71.657 61.1022C71.657 60.6299 71.5521 60.2585 71.3382 59.9881Z" fill="#353535"/>
<path d="M13.7252 26.235C14.0602 25.8516 14.4679 25.6619 14.9482 25.6619C15.4326 25.6619 15.8403 25.8516 16.1713 26.235C16.5063 26.6185 16.6718 27.1271 16.6718 27.7649C16.6718 28.4026 16.5063 28.9153 16.1713 29.2947C15.8363 29.6782 15.4286 29.8679 14.9482 29.8679C14.4639 29.8679 14.0562 29.6782 13.7252 29.2947C13.3902 28.9112 13.2247 28.4026 13.2247 27.7649C13.2247 27.1271 13.3902 26.6185 13.7252 26.235ZM15.7152 26.6548C15.5012 26.3844 15.2469 26.2512 14.9523 26.2512C14.6536 26.2512 14.3993 26.3844 14.1894 26.6548C13.9755 26.9253 13.8705 27.2966 13.8705 27.7689C13.8705 28.2412 13.9755 28.6125 14.1894 28.883C14.4033 29.1534 14.6576 29.2907 14.9523 29.2907C15.251 29.2907 15.5053 29.1534 15.7152 28.883C15.9291 28.6125 16.0341 28.2412 16.0341 27.7689C16.0341 27.2966 15.9251 26.9253 15.7152 26.6548Z" fill="#353535"/>
<path d="M27.5104 42.8811V48.2133H26.6748V44.1808H25.7222V43.6077C26.0411 43.5713 26.2873 43.4987 26.4528 43.3776C26.6183 43.2605 26.7556 43.095 26.8645 42.8811H27.5104Z" fill="#353535"/>
<path d="M36.7898 15.5747V20.9069H35.9543V16.8745H35.0016V16.3013C35.3205 16.2649 35.5668 16.1923 35.7322 16.0712C35.8977 15.9541 36.035 15.7886 36.144 15.5747H36.7898Z" fill="#353535"/>
<path d="M25.6859 69.2595V73.1749H25.0724V70.2121H24.3741V69.7923C24.6082 69.7681 24.7858 69.7116 24.9109 69.6228C25.032 69.538 25.1329 69.4129 25.2137 69.2595H25.6859Z" fill="#353535"/>
</g>
<defs>
<clipPath id="clip0_149_16839">
<rect width="84" height="84" fill="white" transform="translate(2.5 2)"/>
</clipPath>
</defs>
</svg>
